<?xml version="1.0" encoding="UTF-8" standalone="no"?>
<svg
   xmlns:dc="http://purl.org/dc/elements/1.1/"
   xmlns:cc="http://creativecommons.org/ns#"
   xmlns:rdf="http://www.w3.org/1999/02/22-rdf-syntax-ns#"
   xmlns:svg="http://www.w3.org/2000/svg"
   xmlns="http://www.w3.org/2000/svg"
   xmlns:sodipodi="http://sodipodi.sourceforge.net/DTD/sodipodi-0.dtd"
   xmlns:inkscape="http://www.inkscape.org/namespaces/inkscape"
   viewBox="0 0 5300 1250"
   height="1250"
   width="5300"
   xml:space="preserve"
   id="svg2"
   version="1.1"
   sodipodi:docname="logo2.svg"
   inkscape:version="0.92.1 r15371"><sodipodi:namedview
     pagecolor="#ffffff"
     bordercolor="#666666"
     borderopacity="1"
     objecttolerance="10"
     gridtolerance="10"
     guidetolerance="10"
     inkscape:pageopacity="0"
     inkscape:pageshadow="2"
     inkscape:window-width="1440"
     inkscape:window-height="837"
     id="namedview80"
     showgrid="false"
     inkscape:zoom="0.19204076"
     inkscape:cx="2188.5463"
     inkscape:cy="236.20375"
     inkscape:window-x="-8"
     inkscape:window-y="-8"
     inkscape:window-maximized="1"
     inkscape:current-layer="g10" /><metadata
     id="metadata8"><rdf:RDF><cc:Work
         rdf:about=""><dc:format>image/svg+xml</dc:format><dc:type
           rdf:resource="http://purl.org/dc/dcmitype/StillImage" /><dc:title></dc:title></cc:Work></rdf:RDF></metadata><defs
     id="defs6"><clipPath
       id="clipPath20"
       clipPathUnits="userSpaceOnUse"><path
         id="path18"
         d="M 0,4499.65 V 0 h 14669.8 v 4499.65 z"
         inkscape:connector-curvature="0" /></clipPath><linearGradient
       id="linearGradient144"
       spreadMethod="pad"
       gradientTransform="matrix(-195.16222,535.63519,535.63519,195.16222,3384.7299,2405.584)"
       gradientUnits="userSpaceOnUse"
       y2="0"
       x2="1"
       y1="0"
       x1="0"><stop
         id="stop140"
         offset="0"
         style="stop-opacity:1;stop-color:#218f41" /><stop
         id="stop142"
         offset="1"
         style="stop-opacity:1;stop-color:#5bb234" /></linearGradient><linearGradient
       id="linearGradient154"
       spreadMethod="pad"
       gradientTransform="matrix(364.71181,-471.00697,-471.00697,-364.71181,3326.3934,2150.9144)"
       gradientUnits="userSpaceOnUse"
       y2="0"
       x2="1"
       y1="0"
       x1="0"><stop
         id="stop150"
         offset="0"
         style="stop-opacity:1;stop-color:#218f41" /><stop
         id="stop152"
         offset="1"
         style="stop-opacity:1;stop-color:#5bb234" /></linearGradient></defs><g
     transform="matrix(1.3333333,0,0,-1.3333333,-1166.419,1541.6047)"
     id="g10"><g
       transform="matrix(0.436605,0,0,0.436605,-343.67704,-296.81199)"
       id="g12"><g
         id="g14"><g
           clip-path="url(#clipPath20)"
           id="g16"><path
             id="path22"
             style="fill:#218e41;fill-opacity:1;fill-rule:nonzero;stroke:none"
             d="m 6731.94,1437 h 17.68 l 68.92,-0.28 c 12.14,0 23.25,2.08 33.3,6.25 9.87,4.01 19.29,10.36 28.2,19.08 8.17,8.57 14.42,17.96 18.8,28.2 4.37,9.69 6.55,20.79 6.55,33.32 0,12.16 -2.18,23.18 -6.55,33.06 -3.8,9.48 -10.05,18.87 -18.8,28.19 -8.34,8.54 -17.64,15 -27.9,19.35 -10.26,4.38 -21.46,6.55 -33.6,6.55 h -86.6 z m -56.67,-73.75 v 303.59 h 143.27 c 19.92,0 38.25,-3.53 54.97,-10.54 16.51,-6.85 31.97,-17.38 46.4,-31.63 14.06,-13.86 24.69,-29.22 31.91,-46.13 6.82,-16.9 10.23,-35.22 10.23,-54.97 0,-19.92 -3.41,-38.25 -10.23,-54.94 -7.03,-16.54 -17.57,-31.82 -31.61,-45.86 -14.25,-14.06 -29.82,-24.6 -46.7,-31.63 -16.93,-6.82 -35.23,-10.24 -54.97,-10.24 h -86.6 v -137.56 h -56.67 v 119.91"
             inkscape:connector-curvature="0" /><path
             id="path24"
             style="fill:#218e41;fill-opacity:1;fill-rule:nonzero;stroke:none"
             d="m 6737.23,1442.29 81.33,-0.3 c 11.39,0 21.9,1.97 31.26,5.86 9.23,3.74 18.14,9.78 26.55,17.98 7.54,7.9 13.51,16.86 17.66,26.5 4.05,9.05 6.09,19.54 6.09,31.27 0,11.33 -2.06,21.73 -6.09,30.89 -3.62,9.03 -9.6,17.96 -17.82,26.71 -7.76,7.95 -16.58,14.06 -26.13,18.14 -9.55,4.05 -20.13,6.11 -31.54,6.11 h -81.31 z m 81.31,-10.84 -91.85,0.3 v 184.24 h 91.85 c 12.82,0 24.8,-2.34 35.66,-6.96 10.84,-4.6 20.8,-11.52 29.62,-20.53 9.18,-9.8 15.87,-19.83 19.92,-29.91 4.58,-10.35 6.92,-22.17 6.92,-34.99 0,-13.22 -2.36,-25.17 -7.01,-35.51 -4.58,-10.71 -11.25,-20.72 -19.79,-29.66 -9.5,-9.29 -19.56,-16.1 -30.05,-20.34 -10.6,-4.39 -22.49,-6.64 -35.27,-6.64 z m -138,-182.84 h 46.15 v 137.56 h 91.85 c 18.94,0 36.78,3.32 53,9.87 16.12,6.71 31.28,16.98 44.96,30.49 13.46,13.44 23.75,28.33 30.46,44.16 6.53,15.92 9.85,33.74 9.85,52.91 0,18.96 -3.32,36.78 -9.87,52.97 -6.87,16.11 -17.23,31.06 -30.72,44.37 -13.88,13.69 -28.92,23.95 -44.73,30.48 -16.03,6.74 -33.83,10.15 -52.95,10.15 h -138 z m 56.69,-10.54 H 6670 v 434.04 h 148.54 c 20.52,0 39.71,-3.69 57.01,-10.95 17.04,-7.06 33.21,-18.07 48.07,-32.73 14.45,-14.27 25.59,-30.37 33.03,-47.8 7.1,-17.55 10.69,-36.72 10.69,-57.03 0,-20.55 -3.59,-39.72 -10.64,-56.97 -7.31,-17.15 -18.31,-33.14 -32.78,-47.59 -14.68,-14.48 -30.94,-25.49 -48.4,-32.75 -17.52,-7.08 -36.66,-10.65 -56.98,-10.65 h -81.31 v -137.57"
             inkscape:connector-curvature="0" /><path
             id="path26"
             style="fill:#218e41;fill-opacity:1;fill-rule:nonzero;stroke:none"
             d="m 6753.01,1458.07 65.6,-0.28 c 9.23,0 17.73,1.56 25.14,4.65 7.47,3.02 14.66,7.93 21.56,14.69 5.84,6.13 10.79,13.51 14.15,21.41 3.28,7.26 4.86,15.57 4.86,25.03 0,9.16 -1.61,17.41 -4.74,24.56 -3.1,7.67 -8.02,14.93 -14.89,22.26 -6.16,6.3 -13.08,11.11 -20.8,14.38 -7.58,3.25 -16.12,4.88 -25.35,4.88 h -65.53 z m 65.53,-42.42 -107.65,0.3 v 215.84 h 107.65 c 14.96,0 29.04,-2.77 41.87,-8.24 12.73,-5.41 24.41,-13.49 34.7,-24 10.76,-11.48 18.5,-23.16 23.29,-35.07 5.27,-11.86 8.06,-25.86 8.06,-40.91 0,-15.46 -2.82,-29.59 -8.41,-41.96 -5.22,-12.18 -12.93,-23.79 -22.78,-34.1 -11.36,-11.11 -23.14,-19.06 -35.53,-24.05 -12.41,-5.16 -26.34,-7.81 -41.2,-7.81 z m -122.2,-151.24 h 14.55 v 137.54 h 107.65 c 16.9,0 32.75,2.93 47.09,8.73 14.08,5.86 27.53,15 39.78,27.07 11.96,11.96 21.07,25.15 27.03,39.12 5.63,13.79 8.57,29.62 8.57,46.7 0,16.95 -2.94,32.78 -8.71,47.09 -5.95,13.91 -15.14,27.14 -27.18,39.03 -12.42,12.26 -25.77,21.4 -39.65,27.12 -14.18,5.96 -29.94,8.96 -46.93,8.96 h -122.2 z m 56.67,-42.14 h -98.81 v 465.64 h 164.34 c 22.63,0 43.88,-4.12 63.12,-12.21 18.85,-7.79 36.74,-19.93 53.05,-36.03 15.94,-15.73 28.22,-33.51 36.48,-52.84 7.97,-19.72 11.94,-40.88 11.94,-63.26 0,-22.58 -3.97,-43.74 -11.8,-62.94 -8.2,-19.21 -20.36,-36.87 -36.23,-52.77 -16.22,-15.98 -34.2,-28.13 -53.51,-36.16 -19.56,-7.91 -40.72,-11.87 -63.05,-11.87 h -65.53 v -137.56"
             inkscape:connector-curvature="0" /><path
             id="path28"
             style="fill:#218e41;fill-opacity:1;fill-rule:nonzero;stroke:none"
             d="m 6758.28,1463.31 60.37,-0.25 c 8.52,0 16.31,1.42 23.09,4.24 6.83,2.77 13.49,7.33 19.9,13.58 5.39,5.68 9.92,12.53 12.99,19.72 3,6.67 4.44,14.15 4.44,23 0,8.38 -1.44,15.92 -4.3,22.4 -2.86,7.1 -7.4,13.85 -13.91,20.79 -5.63,5.73 -12.04,10.17 -19,13.15 -6.95,2.95 -14.78,4.47 -23.32,4.47 h -60.26 z m 60.35,-10.79 -70.89,0.3 v 142.1 h 70.8 c 9.96,0 19.19,-1.76 27.41,-5.29 8.27,-3.5 15.83,-8.75 22.52,-15.55 7.51,-8 12.71,-15.83 16.01,-24.01 3.37,-7.65 5.11,-16.62 5.11,-26.47 0,-10.36 -1.74,-19.27 -5.32,-27.21 -3.52,-8.25 -8.77,-16.2 -15.14,-22.89 -7.53,-7.37 -15.34,-12.68 -23.38,-15.96 -8.04,-3.32 -17.18,-5.02 -27.12,-5.02 z m -102.47,-31.33 102.4,-0.27 c 14.15,0 27.35,2.49 39.17,7.4 11.95,4.83 23.02,12.34 33.87,22.97 9.28,9.71 16.58,20.66 21.62,32.41 5.3,11.75 7.98,25.14 7.98,39.9 0,14.13 -2.64,27.53 -7.61,38.73 -4.63,11.47 -12.09,22.72 -22.33,33.6 -9.74,9.96 -20.82,17.63 -32.92,22.78 -12.18,5.18 -25.55,7.82 -39.8,7.82 h -102.38 z m 102.38,-10.81 -112.92,0.3 v 226.38 h 112.92 c 15.66,0 30.44,-2.91 43.93,-8.65 13.37,-5.69 25.63,-14.16 36.39,-25.18 11.23,-11.93 19.4,-24.28 24.44,-36.8 5.47,-12.37 8.43,-27.26 8.43,-42.83 0,-16.24 -2.98,-31.11 -8.86,-44.14 -5.5,-12.83 -13.49,-24.83 -23.8,-35.59 -11.96,-11.71 -24.14,-19.95 -37.36,-25.31 -13.08,-5.41 -27.62,-8.18 -43.17,-8.18 z m -116.93,-140.7 h 4.01 v 137.56 h 112.92 c 16.24,0 31.42,2.8 45.12,8.34 13.49,5.59 26.32,14.34 38.04,25.93 11.5,11.49 20.2,24.09 25.89,37.42 5.4,13.2 8.15,28.24 8.15,44.67 0,16.26 -2.79,31.42 -8.31,45.1 -5.71,13.28 -14.46,25.85 -26,37.24 -11.93,11.79 -24.72,20.54 -37.98,26.01 -13.51,5.69 -28.63,8.55 -44.91,8.55 h -116.93 z m 14.55,-10.53 h -25.08 v 391.89 h 127.46 c 17.7,0 34.19,-3.15 48.97,-9.35 14.49,-6 28.4,-15.51 41.31,-28.26 12.51,-12.35 22.04,-26.02 28.32,-40.7 6.06,-15.01 9.13,-31.52 9.13,-49.13 0,-17.8 -3,-34.18 -8.95,-48.72 -6.23,-14.66 -15.71,-28.38 -28.17,-40.84 -12.74,-12.57 -26.71,-22.06 -41.51,-28.22 -15,-6.04 -31.51,-9.11 -49.1,-9.11 h -102.38 z m -56.69,-31.61 h 88.27 v 137.56 h 70.8 c 21.67,0 42.21,3.87 61.09,11.5 18.64,7.74 36.09,19.54 51.76,35.02 15.39,15.39 27.21,32.59 35.09,51.1 7.53,18.46 11.38,38.96 11.38,60.88 0,21.66 -3.87,42.28 -11.52,61.26 -7.97,18.6 -19.86,35.8 -35.34,51.06 -15.81,15.62 -33.1,27.39 -51.33,34.92 -18.65,7.84 -39.19,11.8 -61.13,11.8 h -159.07 z m 98.81,-10.51 h -109.32 v 476.15 h 169.58 c 23.34,0 45.26,-4.24 65.18,-12.6 19.47,-8.08 37.89,-20.57 54.7,-37.17 16.42,-16.2 29.09,-34.54 37.61,-54.52 8.24,-20.34 12.36,-42.28 12.36,-65.29 0,-23.3 -4.1,-45.15 -12.18,-64.94 -8.45,-19.83 -21,-38.16 -37.38,-54.51 -16.7,-16.47 -35.25,-29.02 -55.22,-37.31 -20.18,-8.15 -42.05,-12.28 -65.07,-12.28 h -60.26 v -137.53"
             inkscape:connector-curvature="0" /><path
             id="path30"
             style="fill:#218e41;fill-opacity:1;fill-rule:nonzero;stroke:none"
             d="m 7172.02,1601.33 c -19.18,-8.36 -36.06,-19.95 -50.69,-34.74 -15.58,-15.58 -27.14,-32.57 -34.75,-50.99 -7.58,-18.6 -11.38,-38.73 -11.38,-60.37 0,-22.01 3.8,-42.14 11.38,-60.38 7.42,-18.41 18.99,-35.41 34.75,-50.98 14.63,-15.19 31.51,-26.66 50.69,-34.45 18.98,-7.79 39.21,-11.68 60.67,-11.68 21.25,0 41.29,3.89 60.1,11.68 18.78,7.79 35.77,19.26 50.96,34.45 15.57,15.57 27.16,32.57 34.75,50.98 7.96,18.42 11.95,38.55 11.95,60.38 0,21.46 -3.99,41.57 -11.95,60.37 -7.79,18.23 -19.27,35.23 -34.45,50.99 -15.21,15 -32.27,26.59 -51.26,34.74 -18.81,7.79 -38.85,11.68 -60.1,11.68 -21.46,0 -41.69,-3.89 -60.67,-11.68 z m 142.98,53.25 c 24.86,-10.44 48.1,-26.38 69.75,-47.84 21.28,-21.26 37.13,-44.44 47.57,-69.49 10.63,-25.63 15.97,-53.16 15.97,-82.59 0,-29.62 -5.34,-57.15 -15.97,-82.6 -10.44,-25.24 -26.29,-48.39 -47.57,-69.49 -20.87,-20.86 -44.12,-36.62 -69.75,-47.27 -25.65,-10.42 -53.09,-15.67 -82.31,-15.67 -29.62,0 -57.15,5.25 -82.59,15.67 -25.45,10.44 -48.63,26.2 -69.49,47.27 -21.47,21.28 -37.22,44.53 -47.28,69.79 -10.44,24.67 -15.67,52.13 -15.67,82.3 0,30 5.23,57.44 15.67,82.31 10.06,24.87 25.81,48.21 47.28,70.04 21.27,21.28 44.43,37.13 69.49,47.57 24.69,10.45 52.19,15.67 82.59,15.67 30,0 57.44,-5.22 82.31,-15.67"
             inkscape:connector-curvature="0" /><path
             id="path32"
             style="fill:#218e41;fill-opacity:1;fill-rule:nonzero;stroke:none"
             d="m 7174.08,1596.48 c -18.42,-8.04 -34.91,-19.34 -48.99,-33.58 -15.03,-15.05 -26.34,-31.61 -33.63,-49.29 -7.3,-17.89 -10.99,-37.54 -10.99,-58.38 0,-21.21 3.69,-40.84 10.97,-58.34 7.15,-17.73 18.44,-34.26 33.6,-49.26 14.13,-14.67 30.58,-25.84 48.97,-33.33 36.35,-14.91 80.44,-15.05 116.76,0 18.1,7.49 34.68,18.69 49.27,33.3 15,15.01 26.32,31.59 33.6,49.27 7.67,17.77 11.54,37.38 11.54,58.36 0,20.63 -3.87,40.26 -11.54,58.33 -7.49,17.55 -18.74,34.18 -33.37,49.39 -14.59,14.38 -31.29,25.69 -49.57,33.55 -36.18,14.98 -80.3,14.84 -116.62,-0.02 z m 58.61,-303.98 c -22.06,0 -43.13,4.05 -62.67,12.04 -19.74,8.04 -37.4,20.04 -52.47,35.69 -16.1,15.91 -28.19,33.66 -35.85,52.68 -7.81,18.73 -11.77,39.71 -11.77,62.32 0,22.22 3.96,43.22 11.8,62.36 7.83,19.02 19.9,36.72 35.89,52.73 15.02,15.21 32.61,27.25 52.31,35.82 l 0.09,0.07 c 38.94,15.94 85.89,16.1 124.78,-0.02 19.54,-8.39 37.34,-20.46 52.96,-35.85 15.62,-16.23 27.58,-33.92 35.59,-52.65 8.22,-19.4 12.37,-40.4 12.37,-62.46 0,-22.43 -4.17,-43.45 -12.37,-62.46 -7.81,-18.9 -19.88,-36.63 -35.87,-52.61 -15.57,-15.58 -33.3,-27.55 -52.68,-35.59 -19.35,-8.02 -40.24,-12.07 -62.11,-12.07 z m 0,372.48 c -29.53,0 -56.62,-5.13 -80.53,-15.25 -24.35,-10.12 -47.16,-25.75 -67.82,-46.43 -20.84,-21.18 -36.35,-44.18 -46.13,-68.3 -10.15,-24.18 -15.28,-51.19 -15.28,-80.34 0,-29.32 5.13,-56.33 15.26,-80.26 9.78,-24.53 25.28,-47.41 46.13,-68.07 20.31,-20.5 43.1,-36.03 67.77,-46.15 24.71,-10.13 51.83,-15.26 80.6,-15.26 28.42,0 55.45,5.13 80.32,15.26 24.83,10.3 47.71,25.83 68.03,46.12 20.68,20.53 36.3,43.32 46.4,67.78 10.35,24.71 15.58,51.83 15.58,80.58 0,28.58 -5.25,55.7 -15.56,80.57 -10.12,24.3 -25.74,47.09 -46.42,67.8 -21.08,20.86 -43.95,36.58 -68.08,46.7 -24.11,10.12 -51.12,15.25 -80.27,15.25 z m 0,-430.59 c -30.17,0 -58.64,5.38 -84.58,16.05 -25.98,10.65 -49.96,26.96 -71.24,48.45 -21.85,21.64 -38.16,45.71 -48.44,71.52 -10.61,25.13 -16.01,53.51 -16.01,84.25 0,30.55 5.4,58.93 16.06,84.35 10.23,25.33 26.54,49.49 48.37,71.71 21.69,21.67 45.65,38.07 71.23,48.74 25.19,10.65 53.67,16.06 84.61,16.06 30.55,0 58.93,-5.41 84.35,-16.08 25.36,-10.65 49.39,-27.12 71.42,-48.95 21.71,-21.69 38.09,-45.64 48.72,-71.2 10.85,-26.18 16.37,-54.65 16.37,-84.63 0,-30.17 -5.52,-58.64 -16.37,-84.61 -10.63,-25.75 -27.03,-49.73 -48.72,-71.21 -21.26,-21.25 -45.31,-37.54 -71.44,-48.4 -26.2,-10.67 -54.53,-16.05 -84.33,-16.05"
             inkscape:connector-curvature="0" /><path
             id="path34"
             style="fill:#218e41;fill-opacity:1;fill-rule:nonzero;stroke:none"
             d="m 7180.24,1581.91 c -16.54,-7.21 -31.31,-17.36 -43.93,-30.14 -13.61,-13.61 -23.76,-28.45 -30.24,-44.18 -6.5,-15.95 -9.82,-33.58 -9.82,-52.36 0,-19.1 3.3,-36.69 9.78,-52.27 6.39,-15.87 16.49,-30.62 30.12,-44.09 12.85,-13.35 27.46,-23.29 43.79,-29.94 32.64,-13.37 72.33,-13.51 104.76,-0.04 16.18,6.71 31.04,16.74 44.16,29.89 13.52,13.51 23.68,28.35 30.17,44.11 6.92,16.04 10.35,33.51 10.35,52.34 0,18.5 -3.46,36.05 -10.29,52.17 -6.71,15.71 -16.9,30.74 -30.2,44.57 -12.9,12.71 -28,22.93 -44.42,29.99 -31.95,13.24 -71.8,13.21 -104.23,-0.05 z m 52.45,-305.22 c -24.12,0 -47.21,4.44 -68.67,13.24 -21.76,8.84 -41.25,22.08 -57.88,39.35 -17.36,17.15 -30.64,36.71 -39.09,57.72 -8.55,20.5 -12.92,43.54 -12.92,68.23 0,24.27 4.35,47.27 12.96,68.34 8.64,20.98 21.85,40.43 39.35,57.9 16.38,16.59 35.64,29.78 57.17,39.17 l 0.41,0.18 c 42.74,17.5 94.07,17.66 136.83,-0.04 21.53,-9.23 40.97,-22.4 57.99,-39.19 17.25,-17.91 30.26,-37.2 39.01,-57.7 9.07,-21.41 13.67,-44.48 13.67,-68.66 0,-24.6 -4.6,-47.73 -13.7,-68.74 -8.47,-20.56 -21.68,-40.03 -39.18,-57.51 -17.04,-17.04 -36.49,-30.19 -57.79,-39.03 -21.28,-8.79 -44.23,-13.26 -68.16,-13.26 z m 0,372.49 c -27.39,0 -52.43,-4.7 -74.39,-14 -22.5,-9.39 -43.59,-23.84 -62.81,-43.05 -19.28,-19.61 -33.64,-40.89 -42.64,-63.06 -9.39,-22.42 -14.11,-47.39 -14.11,-74.41 0,-27.19 4.72,-52.13 13.99,-74.1 9.12,-22.83 23.41,-43.88 42.7,-63.03 18.94,-19.08 39.96,-33.42 62.66,-42.74 45.26,-18.58 102.68,-18.83 148.97,0.02 22.81,9.46 43.97,23.85 62.8,42.67 19.26,19.06 33.69,40.13 42.99,62.65 9.55,22.81 14.36,47.87 14.36,74.53 0,26.5 -4.83,51.55 -14.36,74.52 -9.3,22.36 -23.75,43.45 -42.99,62.67 -19.56,19.4 -40.79,33.97 -63.01,43.31 -22.17,9.3 -47.14,14.02 -74.16,14.02 z m 0,-430.6 c -32.23,0 -62.71,5.8 -90.61,17.23 -27.94,11.47 -53.66,28.95 -76.43,51.94 -23.32,23.09 -40.79,48.97 -51.88,76.82 -11.34,26.78 -17.15,57.22 -17.15,90.09 0,32.66 5.81,63.09 17.29,90.44 10.95,27.1 28.38,52.98 51.67,76.69 23.25,23.24 48.9,40.79 76.41,52.24 27.09,11.45 57.65,17.29 90.7,17.29 32.66,0 63.1,-5.84 90.45,-17.31 27.23,-11.43 52.95,-29.02 76.45,-52.3 23.2,-23.22 40.72,-48.87 52.18,-76.35 11.68,-28.13 17.59,-58.64 17.59,-90.7 0,-32.28 -5.94,-62.78 -17.59,-90.71 -11.43,-27.64 -29,-53.36 -52.18,-76.33 -22.7,-22.68 -48.44,-40.11 -76.52,-51.77 -28.2,-11.47 -58.57,-17.27 -90.38,-17.27"
             inkscape:connector-curvature="0" /><path
             id="path36"
             style="fill:#218e41;fill-opacity:1;fill-rule:nonzero;stroke:none"
             d="m 7182.3,1577.05 c -15.9,-6.94 -30.07,-16.67 -42.24,-28.97 -13.12,-13.15 -22.92,-27.42 -29.11,-42.51 -6.25,-15.3 -9.43,-32.23 -9.43,-50.34 0,-18.39 3.16,-35.3 9.36,-50.25 6.14,-15.17 15.88,-29.41 28.98,-42.37 12.32,-12.79 26.45,-22.43 42.07,-28.8 31.29,-12.82 69.86,-12.85 100.78,-0.06 15.53,6.45 29.8,16.12 42.44,28.74 13.03,13.05 22.81,27.32 29,42.42 6.64,15.32 9.98,32.22 9.98,50.32 0,17.79 -3.32,34.65 -9.87,50.11 -6.48,15.14 -16.31,29.62 -29.15,42.99 -12.47,12.26 -26.85,21.99 -42.72,28.81 -30.58,12.65 -68.96,12.63 -100.09,-0.09 z m 50.27,-263.55 c -18.71,0 -37.47,3.52 -54.62,10.55 -17,6.92 -32.34,17.39 -45.58,31.16 -14.07,13.88 -24.58,29.31 -31.22,45.78 -6.73,16.17 -10.15,34.45 -10.15,54.24 0,19.49 3.44,37.77 10.2,54.35 6.75,16.38 17.29,31.81 31.4,45.92 13.08,13.24 28.4,23.75 45.51,31.24 l 0.14,0.05 c 33.62,13.74 75.1,13.76 108.24,0.04 17.11,-7.37 32.59,-17.81 46.1,-31.1 13.84,-14.38 24.37,-29.91 31.36,-46.27 7.1,-16.76 10.7,-35.01 10.7,-54.23 0,-19.54 -3.65,-37.86 -10.79,-54.42 -6.71,-16.29 -17.25,-31.7 -31.27,-45.76 -13.6,-13.61 -29.04,-24.05 -45.85,-31.04 -16.9,-6.99 -35.5,-10.51 -54.17,-10.51 z m 0,315.27 c -22.81,0 -45.64,-4.26 -66.55,-12.82 -21.22,-9.24 -39.88,-22.04 -55.82,-38.16 -17.02,-17.02 -29.89,-35.91 -38.23,-56.21 -8.34,-20.43 -12.58,-42.76 -12.58,-66.35 0,-23.98 4.22,-46.27 12.51,-66.19 8.2,-20.41 20.98,-39.24 37.96,-56.03 16.19,-16.79 35.06,-29.61 56.13,-38.2 41.57,-17.02 91.48,-17.16 132.85,0.02 20.66,8.57 39.5,21.3 56.09,37.88 16.99,16.98 29.8,35.76 38.04,55.8 8.82,20.45 13.28,42.87 13.28,66.72 0,23.45 -4.46,45.88 -13.23,66.6 -8.5,19.93 -21.28,38.8 -37.96,56.12 -16.46,16.21 -35.43,29.04 -56.29,38 -20.66,8.56 -43.41,12.82 -66.2,12.82 z m 0.12,-357.35 c -24.81,0 -48.58,4.58 -70.66,13.63 -22.47,9.14 -42.53,22.79 -59.67,40.56 -17.91,17.71 -31.47,37.73 -40.19,59.42 -8.82,21.18 -13.31,44.82 -13.31,70.2 0,24.96 4.49,48.62 13.35,70.34 8.92,21.62 22.54,41.68 40.52,59.64 16.86,17.06 36.65,30.62 58.8,40.26 44.77,18.37 97.45,18.37 141.34,0.19 22.12,-9.51 42.18,-23.07 59.66,-40.34 17.66,-18.3 31.15,-38.25 40.17,-59.36 9.35,-22.06 14.09,-45.86 14.09,-70.73 0,-25.31 -4.76,-49.13 -14.11,-70.82 -8.75,-21.26 -22.33,-41.18 -40.31,-59.14 -17.57,-17.57 -37.58,-31.08 -59.5,-40.17 -21.92,-9.07 -45.51,-13.68 -70.18,-13.68 z m 0,372.49 c -26.69,0 -51.01,-4.56 -72.33,-13.58 -21.88,-9.1 -42.42,-23.2 -61.13,-41.92 -18.78,-19.12 -32.76,-39.76 -41.51,-61.31 -9.11,-21.76 -13.72,-46.1 -13.72,-72.44 0,-26.48 4.59,-50.71 13.59,-72.06 8.82,-22.13 22.81,-42.74 41.55,-61.31 18.43,-18.6 38.93,-32.6 60.97,-41.62 44.52,-18.28 100.09,-18.28 144.96,0.02 22.16,9.21 42.73,23.18 61.08,41.51 18.74,18.57 32.8,39.07 41.82,60.92 9.3,22.17 13.98,46.56 13.98,72.54 0,25.79 -4.68,50.18 -13.95,72.51 -9.05,21.74 -23.11,42.23 -41.85,60.97 -19.08,18.9 -39.72,33.07 -61.34,42.16 -21.53,9.05 -45.81,13.61 -72.12,13.61 z m -0.28,-388.43 c -26.45,0 -52.81,4.81 -76.31,14.45 -23.34,9.55 -45.01,24.33 -64.41,43.91 -19.74,19.59 -34.51,41.37 -43.86,64.77 -9.51,22.54 -14.36,48.15 -14.36,76.05 0,27.73 4.88,53.48 14.52,76.45 9.25,22.79 23.98,44.57 43.75,64.73 19.72,19.71 41.43,34.58 64.54,44.22 22.61,9.55 48.31,14.39 76.41,14.39 27.74,0 53.36,-4.86 76.2,-14.43 22.88,-9.62 44.64,-24.56 64.68,-44.41 19.72,-19.72 34.59,-41.39 44.14,-64.41 9.82,-23.61 14.77,-49.36 14.77,-76.54 0,-27.37 -4.97,-53.14 -14.77,-76.57 -9.55,-23.16 -24.42,-44.8 -44.14,-64.36 -19.31,-19.29 -41,-34.04 -64.5,-43.77 -23.7,-9.67 -50.2,-14.48 -76.66,-14.48 z m 0.28,430.57 c -32.34,0 -62.16,-5.67 -88.64,-16.88 -26.87,-11.17 -52.01,-28.37 -74.74,-51.1 -22.79,-23.19 -39.8,-48.41 -50.52,-74.94 -11.22,-26.77 -16.9,-56.5 -16.9,-88.47 0,-32.18 5.63,-61.8 16.74,-88.02 10.85,-27.31 27.92,-52.55 50.73,-75.13 22.31,-22.54 47.43,-39.62 74.73,-50.82 27.26,-11.18 57.06,-16.84 88.6,-16.84 31.15,0 60.9,5.68 88.38,16.88 27.4,11.36 52.57,28.4 74.79,50.62 22.72,22.49 39.87,47.6 51.03,74.6 11.4,27.32 17.2,57.17 17.2,88.71 0,31.39 -5.8,61.22 -17.18,88.68 -11.18,26.82 -28.36,51.95 -51.05,74.64 -23,22.79 -48.15,40.02 -74.74,51.17 -26.71,11.23 -56.46,16.9 -88.43,16.9 z m 0,-472.73 c -32.92,0 -64.06,5.93 -92.58,17.63 -28.63,11.73 -54.95,29.59 -78.19,53.12 -23.82,23.56 -41.67,50.02 -53.05,78.56 -11.61,27.44 -17.52,58.45 -17.52,92.03 0,33.37 5.95,64.49 17.7,92.48 11.23,27.76 28.98,54.15 52.77,78.36 23.75,23.72 50.03,41.68 78.15,53.38 27.76,11.75 58.96,17.71 92.72,17.71 33.37,0 64.5,-5.98 92.49,-17.73 27.85,-11.68 54.12,-29.66 78.12,-53.41 23.68,-23.68 41.64,-49.95 53.32,-78.08 11.96,-28.72 18,-59.94 18,-92.71 0,-32.94 -6.04,-64.16 -18,-92.74 -11.68,-28.29 -29.64,-54.56 -53.32,-78.04 -23.18,-23.18 -49.5,-41 -78.22,-52.9 -28.81,-11.71 -59.87,-17.66 -92.39,-17.66"
             inkscape:connector-curvature="0" /><path
             id="path38"
             style="fill:#218e41;fill-opacity:1;fill-rule:nonzero;stroke:none"
             d="m 7644.59,1448.4 0.3,-0.29 c 11.57,0 21.74,1.89 30.47,5.7 7.78,3.59 15.84,9.59 24.2,17.93 8.55,8.55 14.64,17.66 18.23,27.35 3.6,8.73 5.41,19.26 5.41,31.61 0,11.19 -1.81,21.46 -5.41,30.76 -3.41,7.97 -9.41,16.51 -17.93,25.63 v 0.29 c -7.81,7.58 -18.05,13.47 -30.76,17.64 -11.98,4.01 -24.87,6 -38.73,6 h -69.49 v -162.34 h 17.64 l 21.36,-0.28 z m -140.67,218.44 h 132.13 c 21.07,0 41,-3.71 59.8,-11.11 17.87,-7.03 33.81,-17.2 47.87,-30.49 14.41,-14.61 24.46,-28.56 30.17,-41.86 6.09,-13.86 9.11,-30.47 9.11,-49.82 v -11.98 c 0,-14.61 -2.18,-28.1 -6.55,-40.45 -4.17,-11.75 -10.63,-24 -19.38,-36.71 -7.37,-10.26 -14.4,-17.75 -21.04,-22.52 -6.28,-4.74 -15.01,-9.3 -26.23,-13.67 l -19.92,-7.97 11.67,-18.21 89.42,-138.71 h -70.61 l -96.54,148.37 h -62.67 v -148.37 h -56.96 l -0.27,423.5"
             inkscape:connector-curvature="0" /><path
             id="path40"
             style="fill:#218e41;fill-opacity:1;fill-rule:nonzero;stroke:none"
             d="m 7614.13,1453.67 32.87,-0.28 c 9.94,0.24 18.78,2 26.27,5.25 7.05,3.27 14.7,8.95 22.58,16.84 7.97,7.99 13.7,16.53 17.02,25.44 3.39,8.25 5.06,18.21 5.06,29.78 0,10.49 -1.69,20.2 -5.06,28.85 -3.05,7.17 -8.75,15.31 -16.86,23.94 l -1.42,1.6 c -6.98,6.3 -16.1,11.32 -27.14,14.94 -11.38,3.8 -23.86,5.72 -37.08,5.72 h -64.22 v -151.8 z m 30.76,-10.81 -89.28,0.55 v 172.88 h 74.76 c 14.36,0 27.94,-2.11 40.4,-6.25 13.4,-4.43 24.42,-10.77 32.78,-18.88 l 1.58,-2.01 c 8.17,-8.98 14.06,-17.59 17.5,-25.63 3.91,-10.04 5.84,-21.03 5.84,-32.82 0,-12.97 -1.95,-24.26 -5.8,-33.6 -3.78,-10.17 -10.33,-20 -19.37,-29.07 -8.78,-8.77 -17.43,-15.16 -25.73,-19.01 -9.45,-4.1 -20.43,-6.16 -32.68,-6.16 z m 78.33,-194.25 h 58.11 l -99.33,154.19 25.86,10.33 c 10.71,4.19 19.12,8.54 25,12.99 6.26,4.49 12.94,11.65 19.96,21.36 8.36,12.19 14.68,24.13 18.68,35.41 4.15,11.73 6.23,24.77 6.23,38.69 v 11.98 c 0,18.57 -2.91,34.63 -8.65,47.71 -5.43,12.66 -15.21,26.2 -29.12,40.28 -13.35,12.65 -28.9,22.54 -46.03,29.28 -18.09,7.12 -37.56,10.74 -57.86,10.74 h -126.89 l 0.28,-412.96 h 46.43 v 148.37 h 70.79 z m 77.44,-10.54 h -83.16 l -96.54,148.38 h -54.54 v -148.38 h -67.49 l -0.28,434.04 h 137.42 c 21.63,0 42.4,-3.85 61.73,-11.48 18.37,-7.24 35.06,-17.84 49.54,-31.56 14.93,-15.14 25.47,-29.78 31.38,-43.61 6.34,-14.39 9.55,-31.86 9.55,-51.9 v -11.98 c 0,-15.14 -2.29,-29.34 -6.85,-42.19 -4.33,-12.16 -11.04,-24.94 -19.99,-37.95 -7.75,-10.74 -15.23,-18.74 -22.34,-23.8 -6.55,-4.94 -15.78,-9.8 -27.36,-14.31 l -13.98,-5.59 102.91,-159.67"
             inkscape:connector-curvature="0" /><path
             id="path42"
             style="fill:#218e41;fill-opacity:1;fill-rule:nonzero;stroke:none"
             d="m 7581.93,1469.7 69.56,-0.25 c 5.86,0.53 11.04,1.74 15.46,3.67 5.03,2.33 11.15,6.96 17.73,13.53 6.34,6.37 10.85,13.01 13.37,19.77 2.82,6.85 4.08,14.79 4.08,24.28 0,8.51 -1.33,16.3 -3.99,23.15 -2.13,4.97 -6.82,11.54 -13.65,18.83 l -1.37,1.44 c -5.25,4.47 -12.14,8.13 -20.62,10.88 -9.82,3.3 -20.61,4.95 -32.13,4.95 h -48.44 z m 62.96,-42.65 -105.08,0.56 v 204.46 h 90.56 c 16.03,0 31.33,-2.36 45.4,-7.05 15.62,-5.14 28.69,-12.74 38.77,-22.57 l 6.37,-7.35 c 7.35,-8.7 12.71,-17.04 16.24,-25.35 4.81,-12.39 7.12,-25.31 7.12,-39.05 0,-15.03 -2.36,-28.36 -7.01,-39.65 -4.37,-11.77 -12.13,-23.52 -22.81,-34.19 -10.22,-10.22 -20.11,-17.48 -30.25,-22.18 -11.8,-5.13 -24.86,-7.63 -39.31,-7.63 z m 86.9,-162.64 h 20.54 l -93.95,145.95 43.61,17.45 c 11.8,4.58 18.1,8.45 21.32,10.9 3.74,2.68 9.21,7.65 16.68,18 7.37,10.77 13.08,21.49 16.63,31.48 3.52,10.01 5.31,21.23 5.31,33.39 v 11.98 c 0,16.37 -2.45,30.28 -7.3,41.34 -4.72,10.99 -13.43,22.88 -25.91,35.55 -11.5,10.88 -25.33,19.67 -40.56,25.68 -16.27,6.41 -33.78,9.64 -52.11,9.64 h -111.06 l 0.25,-381.36 h 14.84 v 148.38 h 95.15 z m 97.84,-42.14 h -120.68 l -96.54,148.37 h -30.18 v -148.37 h -99.09 l -0.32,465.64 h 153.23 c 23.61,0 46.36,-4.24 67.52,-12.57 20.27,-8 38.66,-19.68 54.63,-34.8 16.72,-16.92 28.35,-33.18 35.04,-48.85 7.17,-16.28 10.83,-35.89 10.83,-58.13 v -11.98 c 0,-16.95 -2.61,-32.91 -7.76,-47.45 -4.76,-13.5 -12.14,-27.49 -21.87,-41.65 -9.07,-12.59 -17.55,-21.53 -26.16,-27.71 -6.71,-5.06 -15.67,-9.94 -26.91,-14.59 l 108.26,-167.91"
             inkscape:connector-curvature="0" /><path
             id="path44"
             style="fill:#218e41;fill-opacity:1;fill-rule:nonzero;stroke:none"
             d="m 7587.2,1474.95 64.31,-0.23 c 4.81,0.46 9.46,1.53 13.33,3.23 4.37,2.04 10.17,6.46 16.1,12.41 5.84,5.84 9.92,11.87 12.17,17.89 2.56,6.23 3.77,13.51 3.77,22.45 0,7.87 -1.21,15.05 -3.64,21.25 -1.88,4.35 -6.39,10.49 -12.6,17.13 l -1.32,1.4 c -4.33,3.64 -10.68,6.98 -18.44,9.53 -9.28,3.09 -19.54,4.67 -30.51,4.67 h -43.17 z m 64.75,-10.74 -75.27,0.25 v 130.75 h 53.69 c 12.11,0 23.5,-1.73 33.81,-5.19 9.07,-2.98 16.58,-6.97 22.37,-11.89 l 1.77,-1.81 c 7.16,-7.65 12.23,-14.68 14.66,-20.38 2.97,-7.61 4.41,-16.04 4.41,-25.24 0,-10.33 -1.44,-18.95 -4.46,-26.27 -2.73,-7.29 -7.63,-14.57 -14.52,-21.51 -6.92,-6.9 -13.56,-11.96 -19.24,-14.57 -5.02,-2.2 -10.79,-3.57 -17.22,-4.14 z m -106.88,-31.36 99.82,-0.53 c 13.93,0 26.11,2.36 37.22,7.2 9.44,4.39 18.83,11.29 28.63,21.07 9.99,9.98 17.47,21.16 21.6,32.32 4.44,10.78 6.66,23.43 6.66,37.79 0,13.28 -2.22,25.42 -6.75,37.15 -3.25,7.67 -8.29,15.53 -15.35,23.86 l -6.34,7.31 c -9.19,8.93 -21.53,16.1 -36.44,21 -13.56,4.52 -28.27,6.8 -43.75,6.8 h -85.3 z m 99.82,-11.06 -110.35,0.59 v 214.96 h 95.83 c 16.63,0 32.45,-2.45 47.07,-7.33 16.4,-5.38 30.11,-13.38 40.79,-23.78 l 6.69,-7.67 c 7.74,-9.21 13.33,-17.93 17.08,-26.75 5.09,-13.1 7.54,-26.5 7.54,-41.11 0,-15.74 -2.5,-29.75 -7.38,-41.64 -4.62,-12.4 -12.94,-24.88 -23.98,-35.92 -10.67,-10.67 -21.07,-18.27 -31.79,-23.22 -12.37,-5.41 -26.31,-8.13 -41.5,-8.13 z m 89.76,-152.11 h 8.04 l -92.19,143.2 49.54,19.81 c 11.2,4.35 17.11,7.97 20.11,10.24 4.7,3.37 9.9,9.02 15.56,16.88 7.21,10.46 12.57,20.66 15.93,30.14 3.35,9.41 5.05,20.07 5.05,31.63 v 11.98 c 0,15.62 -2.34,28.83 -6.87,39.23 -4.45,10.34 -12.81,21.74 -24.83,33.97 -10.93,10.28 -24.37,18.81 -38.78,24.46 -15.6,6.16 -32.48,9.28 -50.14,9.28 h -105.81 l 0.25,-370.82 h 4.33 v 148.37 h 103.27 z m 27.33,-10.53 h -33.05 l -96.54,148.37 h -87.01 v -148.37 h -25.41 l -0.25,391.89 h 116.35 c 18.99,0 37.18,-3.37 54.01,-10.02 15.64,-6.16 30.26,-15.41 42.26,-26.72 13.1,-13.31 22.17,-25.82 27.12,-37.32 5.13,-11.7 7.74,-26.34 7.74,-43.42 v -11.98 c 0,-12.76 -1.88,-24.6 -5.64,-35.16 -3.64,-10.35 -9.45,-21.35 -17.22,-32.68 -6.48,-9 -12.32,-15.28 -17.93,-19.31 -5.07,-3.8 -12.67,-7.7 -22.5,-11.54 l -37.65,-15.05 z m -50.16,-31.61 h 108.15 l -106.46,165.11 5.84,2.41 c 10.72,4.4 19.38,9.09 25.77,13.9 8.27,5.96 16.42,14.61 25.06,26.59 9.41,13.72 16.58,27.33 21.18,40.34 4.93,13.99 7.44,29.36 7.44,45.69 v 11.98 c 0,21.51 -3.5,40.35 -10.37,56 -6.46,15.09 -17.89,30.99 -33.97,47.3 -15.34,14.5 -33.14,25.83 -52.81,33.57 -20.55,8.11 -42.6,12.21 -65.58,12.21 h -147.98 l 0.32,-455.1 h 88.55 v 148.37 h 38.32 z m 127.5,-10.51 h -133.23 l -96.54,148.37 h -22.06 V 1217.03 H 7477.9 l -0.35,476.15 h 158.52 c 24.28,0 47.66,-4.36 69.45,-12.95 20.91,-8.24 39.87,-20.31 56.3,-35.84 17.15,-17.38 29.31,-34.35 36.27,-50.64 7.47,-16.93 11.25,-37.22 11.25,-60.19 v -11.98 c 0,-17.52 -2.72,-34.08 -8.06,-49.2 -4.92,-13.9 -12.48,-28.33 -22.49,-42.87 -9.37,-13.04 -18.33,-22.47 -27.44,-29.02 -5.77,-4.35 -13.24,-8.64 -22.17,-12.67 l 110.14,-170.79"
             inkscape:connector-curvature="0" /><path
             id="path46"
             style="fill:#218e41;fill-opacity:1;fill-rule:nonzero;stroke:none"
             d="m 8056.27,1666.84 h 95.12 v -56.12 h -113.08 v -367.38 h -56.66 v 367.38 h -113.06 v 56.12 h 187.68"
             inkscape:connector-curvature="0" /><path
             id="path48"
             style="fill:#218e41;fill-opacity:1;fill-rule:nonzero;stroke:none"
             d="m 7986.91,1248.61 h 46.16 v 367.38 h 113.05 v 45.58 h -272.26 v -45.58 h 113.05 z m 56.69,-10.54 h -67.22 v 367.38 h -113.05 v 66.66 h 293.33 v -66.66 H 8043.6 v -367.38"
             inkscape:connector-curvature="0" /><path
             id="path50"
             style="fill:#218e41;fill-opacity:1;fill-rule:nonzero;stroke:none"
             d="m 8002.72,1264.41 h 14.55 v 367.38 h 113.05 v 13.98 h -240.68 v -13.98 h 113.08 z m 56.66,-42.14 h -98.8 v 367.38 h -113.06 v 98.26 h 324.92 v -98.26 h -113.06 v -367.38"
             inkscape:connector-curvature="0" /><path
             id="path52"
             style="fill:#218e41;fill-opacity:1;fill-rule:nonzero;stroke:none"
             d="m 8007.99,1269.68 h 4.01 v 367.38 h 113.05 v 3.44 h -230.14 v -3.44 h 113.08 z m 14.54,-10.53 h -25.08 v 367.38 H 7884.4 v 24.51 h 251.19 v -24.51 h -113.06 z m -56.69,-31.61 h 88.28 v 367.38 h 113.08 v 87.72 h -314.41 v -87.72 h 113.05 z m 98.81,-10.51 h -109.34 v 367.38 h -113.06 v 108.77 h 335.48 v -108.77 h -113.08 v -367.38"
             inkscape:connector-curvature="0" /><path
             id="path54"
             style="fill:#218e41;fill-opacity:1;fill-rule:nonzero;stroke:none"
             d="m 8609.01,1346.48 h 69.35 c -11.59,24.3 -23.13,50.41 -34.6,78.35 -11.48,27.92 -22.95,54.13 -34.31,78.59 -11.59,-24.46 -23.23,-50.67 -34.89,-78.59 -11.7,-27.94 -23.22,-54.05 -34.6,-78.35 z m 182.11,-105.41 h -60.65 l -31.31,63.77 h -180 l -31.33,-63.77 h -60.65 l 181.97,390.66 181.97,-390.66"
             inkscape:connector-curvature="0" /><path
             id="path56"
             style="fill:#218e41;fill-opacity:1;fill-rule:nonzero;stroke:none"
             d="m 8547.93,1351.31 h 122.42 c -10.56,22.45 -21.17,46.59 -31.52,71.83 -9.69,23.59 -19.58,46.4 -29.43,67.98 -9.96,-21.49 -20.04,-44.3 -29.94,-68 -10.67,-25.54 -21.25,-49.66 -31.53,-71.81 z m 138.47,-9.64 h -154.42 l 3.15,6.71 c 11.19,23.87 22.78,50.16 34.51,78.17 11.57,27.69 23.34,54.19 34.97,78.79 l 4.88,10.29 4.81,-10.33 c 11.48,-24.72 23.07,-51.22 34.4,-78.77 11.34,-27.62 22.95,-53.92 34.5,-78.1 z m 47.48,-95.78 h 49.29 l -174.02,373.56 -174,-373.56 h 49.26 l 31.34,63.78 h 186.82 z m 65.21,-9.62 h -72.03 l -31.31,63.76 h -173.18 l -31.33,-63.76 h -72.01 l 3.09,6.71 186.83,401.04 189.94,-407.75"
             inkscape:connector-curvature="0" /><path
             id="path58"
             style="fill:#218e41;fill-opacity:1;fill-rule:nonzero;stroke:none"
             d="m 8571.63,1365.74 h 74.92 c -7.56,16.74 -15.09,34.24 -22.51,52.31 -4.88,11.89 -9.83,23.57 -14.75,35 -5.04,-11.43 -10.08,-23.16 -15.05,-35.09 -7.61,-18.18 -15.19,-35.66 -22.61,-52.22 z m 138.87,-38.5 H 8508 l 12.6,26.84 c 11.11,23.66 22.63,49.78 34.27,77.63 11.65,27.87 23.52,54.58 35.25,79.36 l 19.49,41.2 19.21,-41.32 c 11.59,-24.9 23.25,-51.6 34.66,-79.36 11.27,-27.39 22.76,-53.43 34.19,-77.41 z m 33.6,-66.9 h 15.16 l -150.11,322.23 -150.11,-322.23 h 15.14 l 31.33,63.76 h 207.28 z m 78.9,-38.5 h -106.18 l -31.31,63.76 h -152.72 l -31.34,-63.76 h -106.13 l 213.83,459.04 213.85,-459.04"
             inkscape:connector-curvature="0" /><path
             id="path60"
             style="fill:#218e41;fill-opacity:1;fill-rule:nonzero;stroke:none"
             d="m 8579.46,1370.55 h 59.24 c -6.51,14.64 -13.11,30.03 -19.61,45.81 -3.25,7.97 -6.55,15.85 -9.85,23.61 -3.36,-7.81 -6.73,-15.71 -10.08,-23.7 -6.62,-15.83 -13.21,-31.11 -19.7,-45.72 z m 74.97,-9.62 h -90.63 l 2.95,6.64 c 7.43,16.54 14.98,33.97 22.59,52.11 4.97,11.96 10.01,23.71 15.07,35.16 l 4.92,11.2 4.86,-11.22 c 4.95,-11.46 9.89,-23.16 14.77,-35.07 7.47,-18.12 15,-35.66 22.47,-52.18 z M 8516,1332.05 h 186.48 l -9.64,20.2 c -11.43,24 -22.97,50.14 -34.29,77.64 -11.36,27.65 -22.99,54.29 -34.58,79.18 l -14.41,30.99 -14.61,-30.89 c -11.64,-24.56 -23.45,-51.19 -35.16,-79.18 -11.57,-27.67 -23.11,-53.85 -34.36,-77.81 z m 231.54,-66.9 h 3.77 l -142.16,305.15 -142.14,-305.15 h 3.75 l 31.34,63.76 1.07,0.23 12.6,26.84 c 11.15,23.82 22.68,49.89 34.19,77.44 11.73,28.11 23.64,54.88 35.32,79.55 l 24.37,51.51 24.03,-51.65 c 11.61,-25.01 23.32,-51.76 34.75,-79.54 11.22,-27.38 22.71,-53.33 34.07,-77.19 l 12.95,-27.19 h 0.75 z m 19.69,-9.62 h -26.54 l -31.31,63.76 h -200.43 l -31.34,-63.76 h -26.52 l 3.11,6.68 154.95,332.67 z m -46.97,-28.89 h 94.77 l -205.88,441.96 -205.86,-441.96 h 94.75 l 31.34,63.77 h 159.57 z m 110.71,-9.61 h -117.56 l -31.31,63.76 h -145.88 l -31.33,-63.76 h -117.54 l 3.11,6.68 218.69,469.47 221.82,-476.15"
             inkscape:connector-curvature="0" /><path
             id="path62"
             style="fill:#218e41;fill-opacity:1;fill-rule:nonzero;stroke:none"
             d="m 9193.54,1666.84 v -260.3 c 0,-23.37 -3.96,-44.81 -11.93,-64.37 -8.36,-19.74 -20.7,-37.79 -37.04,-54.12 v -0.27 c -17.29,-16.9 -35.41,-29.16 -54.39,-36.74 -19.56,-8.18 -40.91,-12.25 -64.09,-12.25 -23.52,0 -45.07,3.98 -64.63,11.95 -20.32,8.36 -38.44,20.8 -54.4,37.31 -16.51,16.33 -28.86,34.38 -37.01,54.12 -8,19.56 -11.98,41 -11.98,64.37 v 260.3 h 57.26 v -260.03 c 0,-14.8 2.75,-28.86 8.24,-42.15 5.14,-12.52 13.2,-24.39 24.22,-35.59 10.62,-10.83 22.58,-18.89 35.86,-24.21 12.92,-5.49 26.98,-8.27 42.17,-8.27 14.43,0 28.38,2.78 41.87,8.27 13.28,5.5 25.15,13.59 35.59,24.21 10.44,9.88 18.71,21.74 24.78,35.59 5.5,13.29 8.27,27.35 8.27,42.15 v 260.03 h 57.21"
             inkscape:connector-curvature="0" /><path
             id="path64"
             style="fill:#218e41;fill-opacity:1;fill-rule:nonzero;stroke:none"
             d="m 8863.34,1661.57 v -255.03 c 0,-22.57 3.89,-43.55 11.59,-62.37 7.83,-18.97 19.88,-36.58 35.84,-52.36 15.46,-16.01 33.17,-28.15 52.7,-36.19 18.81,-7.67 39.88,-11.57 62.65,-11.57 22.33,0 43.22,3.99 62.02,11.84 17.82,7.13 35.09,18.67 51.4,34.34 l 1.32,1.56 c 15.76,15.78 27.85,33.43 35.89,52.42 7.66,18.76 11.55,39.74 11.55,62.33 v 255.03 h -46.7 v -254.74 c 0,-15.46 -2.93,-30.3 -8.68,-44.18 -6.37,-14.52 -15.07,-27.07 -26,-37.4 -10.79,-10.97 -23.36,-19.52 -37.22,-25.24 -28.86,-11.82 -61.72,-11.25 -88.09,0.02 -13.81,5.5 -26.47,14.06 -37.58,25.36 -11.43,11.61 -19.93,24.16 -25.33,37.28 -5.73,13.86 -8.64,28.72 -8.64,44.16 v 254.74 z m 162.78,-428.05 c -24.12,0 -46.55,4.17 -66.66,12.37 -20.86,8.58 -39.8,21.55 -56.18,38.52 -16.88,16.67 -29.71,35.45 -38.11,55.75 -8.2,20.11 -12.37,42.44 -12.37,66.38 v 265.57 h 67.8 v -265.28 c 0,-14.04 2.63,-27.55 7.85,-40.15 4.86,-11.86 12.62,-23.27 23.11,-33.92 10.06,-10.24 21.51,-17.98 34.06,-22.99 24.08,-10.27 53.87,-10.75 80.08,-0.03 12.55,5.2 23.93,12.94 33.82,23.02 10.03,9.51 17.96,20.89 23.73,34.01 5.16,12.51 7.81,26 7.81,40.06 v 265.28 h 67.78 v -265.57 c 0,-23.97 -4.17,-46.29 -12.35,-66.36 -8.34,-19.7 -20.66,-37.93 -36.65,-54.28 v -0.05 l -1.58,-1.83 c -17.7,-17.32 -36.6,-30.05 -56.11,-37.86 -20.04,-8.38 -42.31,-12.64 -66.03,-12.64"
             inkscape:connector-curvature="0" /><path
             id="path66"
             style="fill:#218e41;fill-opacity:1;fill-rule:nonzero;stroke:none"
             d="m 8879.14,1645.77 v -239.23 c 0,-20.5 3.5,-39.49 10.4,-56.4 7.03,-16.94 17.91,-32.82 32.32,-47.11 14.2,-14.68 30.09,-25.6 47.62,-32.8 33.36,-13.62 78.44,-14.02 112.59,0.25 15.41,6.16 30.3,15.97 44.55,29.27 l 3.07,3.21 c 14.34,14.34 25.26,30.28 32.52,47.42 6.78,16.64 10.29,35.61 10.29,56.16 v 239.23 h -15.12 v -238.96 c 0,-17.52 -3.32,-34.43 -9.87,-50.21 -7.33,-16.76 -17.27,-31.03 -29.73,-42.83 -11.89,-12.09 -26.21,-21.8 -42.03,-28.38 -32.94,-13.46 -70.09,-12.8 -100.34,0.09 -15.51,6.21 -30.01,15.97 -42.65,28.82 -12.87,13.1 -22.51,27.35 -28.68,42.37 -6.5,15.76 -9.82,32.66 -9.82,50.14 v 238.96 z m 146.95,-428.06 c -26.15,0 -50.57,4.56 -72.58,13.54 -22.97,9.44 -43.68,23.61 -61.59,42.16 -18.14,17.94 -32.13,38.46 -41.34,60.7 -9.03,22.1 -13.58,46.43 -13.58,72.43 v 281.37 h 99.38 v -281.1 c 0,-11.93 2.24,-23.41 6.66,-34.11 4.1,-9.98 10.75,-19.69 19.77,-28.88 8.66,-8.79 18.03,-15.14 28.67,-19.4 20.98,-8.91 45.77,-9.25 68.23,-0.04 10.5,4.35 20.14,10.9 28.57,19.46 8.88,8.41 15.57,18.1 20.47,29.28 4.27,10.28 6.51,21.73 6.51,33.69 v 281.1 h 99.36 v -281.37 c 0,-26.02 -4.54,-50.35 -13.52,-72.34 -8.38,-19.79 -20.27,-38.06 -35.45,-54.6 v -0.41 l -6.35,-6.46 c -19.21,-18.78 -39.83,-32.66 -61.31,-41.25 -21.76,-9.09 -46.04,-13.77 -71.9,-13.77"
             inkscape:connector-curvature="0" /><path
             id="path68"
             style="fill:#218e41;fill-opacity:1;fill-rule:nonzero;stroke:none"
             d="m 8884.41,1640.5 v -233.96 c 0,-19.84 3.37,-38.14 10.01,-54.4 6.76,-16.31 17.22,-31.57 31.15,-45.37 13.67,-14.14 29.09,-24.77 45.9,-31.66 32.68,-13.33 76.33,-13.24 108.58,0.23 14.78,5.91 29.23,15.41 42.97,28.26 l 2.87,3.01 c 13.95,13.94 24.48,29.31 31.47,45.82 6.52,16.04 9.87,34.27 9.87,54.11 v 233.96 h -4.56 v -233.67 c 0,-18.21 -3.46,-35.78 -10.28,-52.24 -7.63,-17.39 -18.03,-32.39 -31,-44.64 -12.23,-12.44 -27.36,-22.68 -43.62,-29.41 -33.29,-13.61 -72.31,-13.58 -104.4,0.11 -16.26,6.49 -31.22,16.58 -44.37,29.96 -13.35,13.59 -23.36,28.4 -29.77,44.07 -6.8,16.4 -10.24,33.94 -10.24,52.15 v 233.67 z m 141.16,-385.82 c -20.3,0 -40.66,3.57 -58.09,10.68 -18.16,7.46 -34.79,18.91 -49.4,34.01 -14.85,14.72 -26.09,31.15 -33.4,48.76 -7.16,17.57 -10.81,37.19 -10.81,58.41 v 244.5 h 25.66 v -244.21 c 0,-16.81 3.16,-33.03 9.43,-48.14 5.89,-14.41 15.17,-28.1 27.58,-40.7 12.09,-12.33 25.84,-21.62 40.84,-27.63 29.64,-12.59 65.62,-12.64 96.38,-0.09 14.95,6.21 28.88,15.6 40.24,27.19 12.09,11.43 21.69,25.26 28.7,41.25 6.25,15.09 9.43,31.31 9.43,48.12 v 244.21 h 25.63 v -244.5 c 0,-21.22 -3.59,-40.77 -10.67,-58.14 -7.54,-17.81 -18.85,-34.35 -33.69,-49.17 l -2.98,-3.12 c -14.91,-13.95 -30.44,-24.14 -46.38,-30.5 -17.41,-7.29 -37.93,-10.93 -58.47,-10.93 z m -183.3,427.96 v -276.1 c 0,-25.34 4.46,-49.02 13.19,-70.41 8.93,-21.6 22.44,-41.43 40.17,-58.96 17.48,-18.12 37.59,-31.9 59.87,-41.04 21.35,-8.7 45.13,-13.13 70.62,-13.13 25.12,0 48.65,4.49 69.85,13.34 20.89,8.36 40.93,21.84 59.64,40.14 l 6.17,6.67 c 14.79,16.1 26.38,33.97 34.47,53.12 8.68,21.27 13.1,44.93 13.1,70.27 v 276.1 h -88.82 v -275.81 c 0,-12.64 -2.32,-24.67 -6.92,-35.73 -5.27,-12.09 -12.37,-22.24 -21.72,-31.08 -8.76,-8.93 -18.96,-15.87 -30.16,-20.52 -23.34,-9.53 -49.7,-9.53 -72.3,0.07 -11.23,4.51 -21.19,11.24 -30.38,20.57 -9.5,9.68 -16.53,19.97 -20.89,30.57 -4.67,11.34 -7.03,23.5 -7.03,36.12 v 275.81 z m 183.85,-470.17 c -26.87,0 -51.95,4.67 -74.6,13.9 -23.64,9.71 -44.98,24.3 -63.38,43.4 -18.64,18.44 -32.93,39.44 -42.44,62.33 -9.27,22.72 -13.95,47.75 -13.95,74.44 v 286.64 h 109.92 v -286.35 c 0,-11.24 2.08,-22.06 6.25,-32.11 3.85,-9.34 10.13,-18.51 18.65,-27.19 8.13,-8.26 16.92,-14.22 26.86,-18.23 20.18,-8.54 43.57,-8.54 64.29,-0.05 9.87,4.08 18.9,10.24 26.78,18.28 8.45,8 14.75,17.02 19.42,27.69 4.03,9.69 6.07,20.34 6.07,31.61 v 286.35 h 109.89 v -286.64 c 0,-26.71 -4.67,-51.72 -13.9,-74.33 -8.34,-19.7 -20.11,-38.07 -35.07,-54.65 v -0.11 l -1.51,-1.93 -6.32,-6.48 c -19.81,-19.35 -41,-33.62 -63.12,-42.44 -22.45,-9.37 -47.32,-14.13 -73.84,-14.13"
             inkscape:connector-curvature="0" /><path
             id="path70"
             style="fill:#218e41;fill-opacity:1;fill-rule:nonzero;stroke:none"
             d="m 9479.23,1666.84 h 95.11 v -56.12 h -113.05 v -367.38 h -56.66 v 367.38 h -113.08 v 56.12 h 187.68"
             inkscape:connector-curvature="0" /><path
             id="path72"
             style="fill:#218e41;fill-opacity:1;fill-rule:nonzero;stroke:none"
             d="m 9409.89,1248.61 h 46.13 v 367.38 h 113.08 v 45.58 h -272.28 v -45.58 h 113.07 z m 56.67,-10.54 h -67.2 v 367.38 H 9286.3 v 66.66 h 293.34 v -66.66 h -113.08 v -367.38"
             inkscape:connector-curvature="0" /><path
             id="path74"
             style="fill:#218e41;fill-opacity:1;fill-rule:nonzero;stroke:none"
             d="m 9425.68,1264.41 h 14.54 v 367.38 h 113.08 v 13.98 h -240.68 v -13.98 h 113.06 z m 56.68,-42.14 h -98.81 v 367.38 H 9270.5 v 98.26 h 324.92 v -98.26 h -113.06 v -367.38"
             inkscape:connector-curvature="0" /><path
             id="path76"
             style="fill:#218e41;fill-opacity:1;fill-rule:nonzero;stroke:none"
             d="m 9430.96,1269.68 h 4.01 v 367.38 h 113.06 v 3.44 h -230.14 v -3.44 h 113.07 z m 14.55,-10.53 h -25.08 v 367.38 h -113.07 v 24.51 h 251.2 v -24.51 h -113.05 z m -56.69,-31.61 h 88.27 v 367.38 h 113.08 v 87.72 h -314.4 v -87.72 h 113.05 z m 98.81,-10.51 h -109.34 v 367.38 h -113.06 v 108.77 h 335.45 v -108.77 h -113.05 v -367.38"
             inkscape:connector-curvature="0" /><path
             id="path78"
             style="fill:#218e41;fill-opacity:1;fill-rule:nonzero;stroke:none"
             d="m 9728.74,1666.84 v -183.69 h 188.85 v 183.69 h 56.36 v -423.5 h -56.36 v 183.69 h -188.85 v -183.69 h -56.39 v 423.5 h 56.39"
             inkscape:connector-curvature="0" /><path
             id="path80"
             style="fill:#218e41;fill-opacity:1;fill-rule:nonzero;stroke:none"
             d="m 9922.85,1248.61 h 45.86 v 412.96 h -45.86 V 1477.88 H 9723.5 v 183.69 h -45.88 v -412.96 h 45.88 v 183.69 h 199.35 z m 56.39,-10.54 h -66.92 v 183.72 h -178.31 v -183.72 h -66.9 v 434.04 h 66.9 v -183.7 h 178.31 v 183.7 h 66.92 v -434.04"
             inkscape:connector-curvature="0" /><path
             id="path82"
             style="fill:#218e41;fill-opacity:1;fill-rule:nonzero;stroke:none"
             d="m 9938.63,1264.41 h 14.27 v 381.36 h -14.27 v -183.7 h -230.96 v 183.7 h -14.24 v -381.36 h 14.24 v 183.7 h 230.96 z m 56.39,-42.14 h -98.51 v 183.71 h -146.7 v -183.71 h -98.51 v 465.64 h 98.51 V 1504.2 h 146.7 v 183.71 h 98.51 v -465.64"
             inkscape:connector-curvature="0" /><path
             id="path84"
             style="fill:#218e41;fill-opacity:1;fill-rule:nonzero;stroke:none"
             d="m 9943.9,1269.68 h 3.73 v 370.82 h -3.73 v -183.69 h -241.47 v 183.69 h -3.74 v -370.82 h 3.74 v 183.69 h 241.47 z m 14.27,-10.53 h -24.78 v 183.69 h -220.43 v -183.69 h -24.8 v 391.89 h 24.8 v -183.7 h 220.43 v 183.7 h 24.78 z m -56.39,-31.61 h 87.97 v 455.1 h -87.97 v -183.69 h -157.23 v 183.69 h -87.98 v -455.1 h 87.98 v 183.71 h 157.23 z m 98.52,-10.51 h -109.05 v 183.68 h -136.17 v -183.68 h -109.04 v 476.15 h 109.04 v -183.72 h 136.17 v 183.72 h 109.05 v -476.15"
             inkscape:connector-curvature="0" /><path
             id="path86"
             style="fill:#218e41;fill-opacity:1;fill-rule:nonzero;stroke:none"
             d="m 10226.3,1601.33 c -19.2,-8.36 -36,-19.95 -50.7,-34.74 -15.6,-15.58 -27.1,-32.57 -34.7,-50.99 -7.6,-18.6 -11.4,-38.73 -11.4,-60.37 0,-22.01 3.8,-42.14 11.4,-60.38 7.4,-18.41 19,-35.41 34.7,-50.98 14.7,-15.19 31.5,-26.66 50.7,-34.45 19,-7.79 39.2,-11.68 60.7,-11.68 21.2,0 41.3,3.89 60.1,11.68 18.8,7.79 35.8,19.26 50.9,34.45 15.6,15.57 27.2,32.57 34.8,50.98 8,18.42 11.9,38.55 11.9,60.38 0,21.46 -3.9,41.57 -11.9,60.37 -7.8,18.23 -19.3,35.23 -34.5,50.99 -15.2,15 -32.2,26.59 -51.2,34.74 -18.8,7.79 -38.9,11.68 -60.1,11.68 -21.5,0 -41.7,-3.89 -60.7,-11.68 z m 143,53.25 c 24.8,-10.44 48.1,-26.38 69.7,-47.84 21.3,-21.26 37.2,-44.44 47.6,-69.49 10.6,-25.63 16,-53.16 16,-82.59 0,-29.62 -5.4,-57.15 -16,-82.6 -10.4,-25.24 -26.3,-48.39 -47.6,-69.49 -20.8,-20.86 -44.1,-36.62 -69.7,-47.27 -25.7,-10.42 -53.1,-15.67 -82.3,-15.67 -29.6,0 -57.2,5.25 -82.6,15.67 -25.5,10.44 -48.6,26.2 -69.5,47.27 -21.5,21.28 -37.2,44.53 -47.3,69.79 -10.4,24.67 -15.6,52.13 -15.6,82.3 0,30 5.2,57.44 15.6,82.31 10.1,24.87 25.8,48.21 47.3,70.04 21.3,21.28 44.4,37.13 69.5,47.57 24.7,10.45 52.2,15.67 82.6,15.67 30,0 57.4,-5.22 82.3,-15.67"
             inkscape:connector-curvature="0" /><path
             id="path88"
             style="fill:#218e41;fill-opacity:1;fill-rule:nonzero;stroke:none"
             d="m 10228.4,1596.48 c -18.4,-8.04 -34.9,-19.34 -49,-33.58 -15,-15.05 -26.4,-31.61 -33.6,-49.29 -7.4,-17.89 -11,-37.54 -11,-58.38 0,-21.21 3.6,-40.84 10.9,-58.34 7.2,-17.73 18.5,-34.26 33.6,-49.26 14.2,-14.67 30.6,-25.84 49,-33.33 36.3,-14.91 80.5,-15.05 116.8,0 18,7.49 34.6,18.69 49.2,33.3 15,15.01 26.3,31.59 33.6,49.27 7.7,17.77 11.6,37.38 11.6,58.36 0,20.63 -3.9,40.26 -11.6,58.33 -7.5,17.55 -18.7,34.18 -33.3,49.39 -14.6,14.38 -31.3,25.69 -49.6,33.55 -36.2,14.98 -80.3,14.84 -116.6,-0.02 z m 58.6,-303.98 c -22.1,0 -43.1,4.05 -62.7,12.04 -19.7,8.04 -37.4,20.04 -52.5,35.69 -16.1,15.91 -28.2,33.66 -35.8,52.68 -7.8,18.73 -11.8,39.71 -11.8,62.32 0,22.22 4,43.22 11.8,62.36 7.9,19.02 19.9,36.72 35.9,52.73 15,15.21 32.6,27.25 52.3,35.82 l 0.1,0.07 c 39,15.94 85.9,16.1 124.8,-0.02 19.5,-8.39 37.3,-20.46 53,-35.85 15.6,-16.23 27.5,-33.92 35.5,-52.65 8.3,-19.4 12.4,-40.4 12.4,-62.46 0,-22.43 -4.2,-43.45 -12.4,-62.46 -7.8,-18.9 -19.8,-36.63 -35.8,-52.61 -15.6,-15.6 -33.4,-27.58 -52.7,-35.59 -19.4,-8.02 -40.2,-12.07 -62.1,-12.07 z m 0,372.48 c -29.5,0 -56.6,-5.13 -80.6,-15.25 -24.3,-10.12 -47.1,-25.75 -67.8,-46.43 -20.8,-21.18 -36.3,-44.18 -46.1,-68.3 -10.1,-24.18 -15.3,-51.19 -15.3,-80.34 0,-29.32 5.2,-56.33 15.3,-80.26 9.8,-24.53 25.3,-47.41 46.1,-68.07 20.3,-20.5 43.1,-36.03 67.8,-46.15 24.7,-10.13 51.8,-15.26 80.6,-15.26 28.4,0 55.4,5.13 80.3,15.26 24.8,10.3 47.7,25.83 68,46.12 20.7,20.53 36.3,43.32 46.4,67.78 10.4,24.67 15.6,51.78 15.6,80.58 0,28.63 -5.2,55.72 -15.5,80.57 -10.2,24.3 -25.8,47.09 -46.5,67.8 -21,20.86 -43.9,36.58 -68,46.7 -24.2,10.12 -51.2,15.25 -80.3,15.25 z m 0,-430.59 c -30.2,0 -58.7,5.38 -84.6,16.05 -26,10.65 -50,26.96 -71.2,48.45 -21.9,21.64 -38.2,45.71 -48.5,71.52 -10.6,25.13 -16,53.51 -16,84.25 0,30.55 5.4,58.93 16.1,84.35 10.2,25.33 26.5,49.49 48.3,71.71 21.7,21.67 45.7,38.07 71.3,48.74 25.2,10.65 53.6,16.06 84.6,16.06 30.5,0 58.9,-5.41 84.3,-16.08 25.4,-10.65 49.4,-27.12 71.5,-48.95 21.7,-21.69 38,-45.64 48.7,-71.2 10.8,-26.16 16.3,-54.63 16.3,-84.63 0,-30.19 -5.5,-58.66 -16.3,-84.61 -10.7,-25.75 -27.1,-49.73 -48.7,-71.21 -21.3,-21.25 -45.4,-37.54 -71.5,-48.4 -26.2,-10.67 -54.5,-16.05 -84.3,-16.05"
             inkscape:connector-curvature="0" /><path
             id="path90"
             style="fill:#218e41;fill-opacity:1;fill-rule:nonzero;stroke:none"
             d="m 10234.5,1581.91 c -16.5,-7.21 -31.3,-17.36 -43.9,-30.14 -13.6,-13.61 -23.8,-28.45 -30.2,-44.18 -6.5,-15.95 -9.9,-33.58 -9.9,-52.36 0,-19.1 3.3,-36.69 9.8,-52.27 6.4,-15.87 16.5,-30.62 30.1,-44.09 12.9,-13.35 27.5,-23.29 43.8,-29.94 32.7,-13.37 72.3,-13.51 104.8,-0.04 16.2,6.69 31,16.74 44.2,29.89 13.5,13.51 23.6,28.35 30.1,44.11 6.9,16.04 10.4,33.51 10.4,52.34 0,18.5 -3.5,36.05 -10.3,52.17 -6.7,15.71 -16.9,30.74 -30.2,44.57 -12.9,12.71 -28,22.93 -44.4,29.99 -32,13.24 -71.8,13.21 -104.3,-0.05 z m 52.5,-305.22 c -24.1,0 -47.2,4.44 -68.7,13.24 -21.7,8.84 -41.2,22.08 -57.9,39.35 -17.3,17.15 -30.6,36.71 -39.1,57.72 -8.5,20.5 -12.9,43.54 -12.9,68.23 0,24.27 4.4,47.27 13,68.34 8.6,20.98 21.8,40.43 39.3,57.9 16.4,16.59 35.7,29.78 57.2,39.17 l 0.4,0.18 c 42.8,17.5 94.1,17.66 136.8,-0.04 21.6,-9.23 41,-22.4 58,-39.19 17.3,-17.91 30.3,-37.2 39,-57.7 9.1,-21.41 13.7,-44.48 13.7,-68.66 0,-24.6 -4.6,-47.73 -13.7,-68.74 -8.5,-20.56 -21.7,-40.03 -39.2,-57.51 -17,-17.06 -36.5,-30.21 -57.8,-39.03 -21.2,-8.79 -44.2,-13.26 -68.1,-13.26 z m 0,372.49 c -27.4,0 -52.4,-4.7 -74.4,-14 -22.5,-9.39 -43.6,-23.84 -62.8,-43.05 -19.3,-19.61 -33.7,-40.89 -42.7,-63.06 -9.4,-22.42 -14.1,-47.39 -14.1,-74.41 0,-27.19 4.7,-52.13 14,-74.1 9.1,-22.83 23.4,-43.88 42.7,-63.03 19,-19.08 40,-33.42 62.7,-42.74 45.2,-18.58 102.6,-18.83 148.9,0.02 22.9,9.46 44,23.85 62.9,42.67 19.2,19.06 33.6,40.13 42.9,62.65 9.6,22.78 14.4,47.84 14.4,74.53 0,26.52 -4.8,51.6 -14.4,74.52 -9.3,22.36 -23.7,43.45 -42.9,62.67 -19.6,19.4 -40.8,33.97 -63.1,43.31 -22.1,9.3 -47.1,14.02 -74.1,14.02 z m 0,-430.6 c -32.2,0 -62.7,5.8 -90.6,17.23 -28,11.47 -53.7,28.95 -76.5,51.94 -23.3,23.09 -40.8,48.97 -51.8,76.82 -11.4,26.78 -17.2,57.22 -17.2,90.09 0,32.66 5.8,63.09 17.3,90.44 10.9,27.1 28.4,52.98 51.7,76.69 23.2,23.24 48.9,40.79 76.4,52.24 27.1,11.45 57.6,17.29 90.7,17.29 32.6,0 63.1,-5.84 90.4,-17.31 27.3,-11.43 53,-29.02 76.5,-52.3 23.2,-23.22 40.7,-48.87 52.2,-76.35 11.6,-28.11 17.5,-58.62 17.5,-90.7 0,-32.3 -5.9,-62.83 -17.5,-90.71 -11.5,-27.64 -29,-53.36 -52.2,-76.33 -22.7,-22.68 -48.5,-40.11 -76.5,-51.77 -28.2,-11.47 -58.6,-17.27 -90.4,-17.27"
             inkscape:connector-curvature="0" /><path
             id="path92"
             style="fill:#218e41;fill-opacity:1;fill-rule:nonzero;stroke:none"
             d="m 10236.6,1577.05 c -15.9,-6.94 -30.1,-16.67 -42.2,-28.97 -13.2,-13.15 -23,-27.42 -29.2,-42.51 -6.2,-15.3 -9.4,-32.23 -9.4,-50.34 0,-18.39 3.2,-35.3 9.4,-50.25 6.1,-15.17 15.9,-29.41 28.9,-42.37 12.4,-12.79 26.5,-22.43 42.1,-28.8 31.4,-12.82 69.9,-12.85 100.8,-0.06 15.5,6.43 29.8,16.12 42.4,28.74 13.1,13.05 22.9,27.32 29,42.42 6.7,15.32 10,32.22 10,50.32 0,17.79 -3.3,34.65 -9.9,50.11 -6.4,15.14 -16.3,29.62 -29.1,42.99 -12.5,12.26 -26.8,21.99 -42.7,28.81 -30.6,12.65 -69,12.63 -100.1,-0.09 z m 50.3,-263.53 c -18.7,0 -37.5,3.5 -54.7,10.53 -17,6.92 -32.3,17.39 -45.5,31.16 -14.1,13.88 -24.6,29.31 -31.3,45.78 -6.7,16.17 -10.1,34.45 -10.1,54.24 0,19.49 3.4,37.77 10.2,54.35 6.7,16.38 17.3,31.81 31.4,45.92 13.1,13.24 28.4,23.75 45.5,31.24 l 0.1,0.05 c 33.7,13.74 75.1,13.76 108.3,0.04 17.1,-7.37 32.6,-17.81 46.1,-31.1 13.8,-14.38 24.4,-29.91 31.3,-46.27 7.1,-16.76 10.7,-35.01 10.7,-54.23 0,-19.54 -3.6,-37.86 -10.7,-54.42 -6.8,-16.29 -17.3,-31.7 -31.3,-45.76 -13.6,-13.63 -29.1,-24.08 -45.9,-31.04 -16.9,-6.99 -35.5,-10.49 -54.1,-10.49 z m 0,315.25 c -22.8,0 -45.7,-4.26 -66.6,-12.82 -21.2,-9.24 -39.9,-22.04 -55.8,-38.16 -17,-17.02 -29.9,-35.91 -38.2,-56.21 -8.4,-20.43 -12.6,-42.76 -12.6,-66.35 0,-23.98 4.2,-46.27 12.5,-66.19 8.2,-20.41 21,-39.24 37.9,-56.03 16.2,-16.79 35.1,-29.61 56.2,-38.2 41.5,-17.02 91.5,-17.16 132.8,0.02 20.7,8.57 39.6,21.3 56.1,37.88 17,16.98 29.8,35.76 38.1,55.8 8.8,20.45 13.2,42.87 13.2,66.72 0,23.45 -4.4,45.88 -13.2,66.6 -8.5,19.93 -21.3,38.8 -37.9,56.12 -16.5,16.21 -35.5,29.04 -56.3,38 -20.7,8.56 -43.4,12.82 -66.2,12.82 z m 0.1,-357.35 c -24.8,0 -48.6,4.58 -70.7,13.63 -22.4,9.14 -42.5,22.79 -59.6,40.56 -18,17.71 -31.5,37.73 -40.2,59.42 -8.9,21.18 -13.3,44.82 -13.3,70.2 0,24.96 4.4,48.62 13.3,70.34 8.9,21.62 22.5,41.68 40.5,59.64 16.9,17.06 36.7,30.62 58.8,40.26 44.8,18.37 97.5,18.37 141.4,0.19 22.1,-9.51 42.1,-23.07 59.6,-40.34 17.7,-18.3 31.2,-38.25 40.2,-59.36 9.3,-22.06 14.1,-45.86 14.1,-70.73 0,-25.31 -4.8,-49.13 -14.1,-70.82 -8.8,-21.26 -22.4,-41.18 -40.3,-59.14 -17.6,-17.57 -37.6,-31.08 -59.5,-40.17 -22,-9.07 -45.6,-13.68 -70.2,-13.68 z m 0,372.49 c -26.7,0 -51,-4.56 -72.4,-13.58 -21.8,-9.1 -42.4,-23.2 -61.1,-41.92 -18.8,-19.12 -32.7,-39.76 -41.5,-61.31 -9.1,-21.76 -13.7,-46.1 -13.7,-72.44 0,-26.48 4.6,-50.71 13.6,-72.06 8.8,-22.13 22.8,-42.74 41.5,-61.31 18.5,-18.6 39,-32.6 61,-41.62 44.5,-18.28 100,-18.28 145,0.02 22.1,9.21 42.7,23.18 61,41.51 18.8,18.57 32.8,39.07 41.9,60.92 9.2,22.15 13.9,46.54 13.9,72.54 0,25.85 -4.7,50.25 -13.9,72.51 -9.1,21.74 -23.1,42.23 -41.9,60.97 -19,18.9 -39.7,33.07 -61.3,42.16 -21.5,9.05 -45.8,13.61 -72.1,13.61 z m -0.3,-388.43 c -26.4,0 -52.8,4.81 -76.3,14.45 -23.3,9.55 -45,24.33 -64.4,43.91 -19.8,19.59 -34.5,41.37 -43.9,64.77 -9.5,22.54 -14.3,48.15 -14.3,76.05 0,27.73 4.9,53.48 14.5,76.45 9.2,22.79 24,44.57 43.7,64.73 19.8,19.71 41.5,34.58 64.6,44.22 22.6,9.55 48.3,14.39 76.4,14.39 27.7,0 53.3,-4.86 76.2,-14.43 22.9,-9.62 44.6,-24.56 64.7,-44.41 19.7,-19.72 34.5,-41.39 44.1,-64.41 9.8,-23.54 14.8,-49.29 14.8,-76.54 0,-27.4 -5,-53.16 -14.8,-76.57 -9.6,-23.16 -24.4,-44.8 -44.1,-64.36 -19.3,-19.29 -41,-34.04 -64.5,-43.77 -23.7,-9.67 -50.2,-14.48 -76.7,-14.48 z m 0.3,430.57 c -32.4,0 -62.2,-5.67 -88.7,-16.88 -26.8,-11.17 -52,-28.37 -74.7,-51.1 -22.8,-23.19 -39.8,-48.41 -50.5,-74.94 -11.2,-26.77 -16.9,-56.5 -16.9,-88.47 0,-32.18 5.6,-61.8 16.7,-88.02 10.9,-27.31 27.9,-52.55 50.8,-75.13 22.3,-22.54 47.4,-39.62 74.7,-50.82 27.2,-11.18 57,-16.84 88.6,-16.84 31.1,0 60.9,5.68 88.4,16.88 27.4,11.36 52.5,28.4 74.7,50.62 22.8,22.49 39.9,47.6 51.1,74.6 11.4,27.25 17.2,57.1 17.2,88.71 0,31.39 -5.8,61.24 -17.2,88.68 -11.2,26.82 -28.4,51.95 -51.1,74.64 -22.9,22.79 -48.1,40.02 -74.7,51.17 -26.7,11.23 -56.4,16.9 -88.4,16.9 z m 0,-472.73 c -32.9,0 -64.1,5.93 -92.6,17.63 -28.6,11.73 -54.9,29.59 -78.2,53.12 -23.8,23.56 -41.7,50.02 -53,78.56 -11.6,27.44 -17.6,58.45 -17.6,92.03 0,33.37 6,64.49 17.7,92.48 11.3,27.76 29,54.15 52.8,78.36 23.8,23.72 50,41.68 78.2,53.38 27.7,11.75 58.9,17.71 92.7,17.71 33.4,0 64.5,-5.98 92.5,-17.73 27.8,-11.68 54.1,-29.66 78.1,-53.41 23.7,-23.68 41.6,-49.95 53.3,-78.08 11.9,-28.72 18,-59.92 18,-92.71 0,-33.03 -6.1,-64.23 -18,-92.74 -11.7,-28.29 -29.6,-54.56 -53.3,-78.04 -23.2,-23.18 -49.5,-41 -78.2,-52.9 -28.8,-11.71 -59.9,-17.66 -92.4,-17.66"
             inkscape:connector-curvature="0" /><path
             id="path94"
             style="fill:#218e41;fill-opacity:1;fill-rule:nonzero;stroke:none"
             d="m 10741.2,1448.4 0.3,-0.29 c 11.6,0 21.7,1.89 30.4,5.7 7.9,3.59 15.9,9.59 24.3,17.93 8.5,8.55 14.6,17.66 18.2,27.35 3.6,8.73 5.4,19.26 5.4,31.61 0,11.19 -1.8,21.46 -5.4,30.76 -3.4,7.97 -9.4,16.51 -17.9,25.63 v 0.29 c -7.8,7.58 -18.1,13.47 -30.8,17.64 -12,4.01 -24.9,6 -38.7,6 h -69.5 v -162.34 h 17.6 l 21.4,-0.28 z m -140.7,218.44 h 132.2 c 21,0 41,-3.71 59.8,-11.11 17.8,-7.03 33.8,-17.2 47.8,-30.49 14.4,-14.61 24.5,-28.56 30.2,-41.86 6.1,-13.86 9.1,-30.47 9.1,-49.82 v -11.98 c 0,-14.61 -2.2,-28.1 -6.5,-40.45 -4.2,-11.75 -10.7,-24 -19.4,-36.71 -7.4,-10.26 -14.4,-17.75 -21.1,-22.52 -6.3,-4.74 -15,-9.3 -26.2,-13.67 l -19.9,-7.97 11.7,-18.21 89.4,-138.71 h -70.6 l -96.6,148.37 h -62.6 v -148.37 h -57 l -0.3,423.5"
             inkscape:connector-curvature="0" /><path
             id="path96"
             style="fill:#218e41;fill-opacity:1;fill-rule:nonzero;stroke:none"
             d="m 10710.8,1453.67 32.8,-0.28 c 10,0.24 18.8,2 26.3,5.25 7,3.27 14.7,8.95 22.5,16.84 8,7.99 13.7,16.53 17.1,25.44 3.4,8.25 5.1,18.21 5.1,29.78 0,10.49 -1.8,20.2 -5.1,28.85 -3.1,7.17 -8.8,15.31 -16.9,23.94 l -1.4,1.6 c -7,6.3 -16.1,11.32 -27.1,14.94 -11.4,3.8 -23.9,5.72 -37.1,5.72 h -64.3 v -151.8 z m 30.7,-10.81 -89.3,0.55 v 172.88 h 74.8 c 14.3,0 27.9,-2.11 40.4,-6.25 13.4,-4.43 24.4,-10.77 32.7,-18.88 l 1.6,-2.01 c 8.2,-8.98 14.1,-17.59 17.5,-25.63 3.9,-10.04 5.9,-21.03 5.9,-32.82 0,-12.97 -2,-24.26 -5.8,-33.6 -3.8,-10.17 -10.3,-20 -19.4,-29.07 -8.8,-8.77 -17.4,-15.16 -25.7,-19.01 -9.5,-4.1 -20.4,-6.16 -32.7,-6.16 z m 78.3,-194.25 h 58.1 l -99.3,154.19 25.9,10.33 c 10.7,4.19 19.1,8.54 25,12.99 6.2,4.49 12.9,11.65 19.9,21.36 8.4,12.19 14.7,24.13 18.7,35.41 4.1,11.73 6.3,24.77 6.3,38.69 v 11.98 c 0,18.57 -3,34.63 -8.7,47.71 -5.5,12.66 -15.2,26.2 -29.1,40.28 -13.4,12.65 -28.9,22.54 -46.1,29.28 -18.1,7.12 -37.5,10.74 -57.8,10.74 h -126.9 l 0.3,-412.96 h 46.4 v 148.37 h 70.8 z m 77.5,-10.54 h -83.2 l -96.5,148.38 h -54.6 v -148.38 h -67.5 l -0.3,434.04 h 137.5 c 21.6,0 42.4,-3.85 61.7,-11.48 18.4,-7.24 35.1,-17.84 49.5,-31.56 15,-15.14 25.5,-29.78 31.4,-43.61 6.4,-14.39 9.6,-31.86 9.6,-51.9 v -11.98 c 0,-15.14 -2.3,-29.34 -6.9,-42.19 -4.3,-12.16 -11,-24.94 -20,-37.95 -7.7,-10.74 -15.2,-18.74 -22.3,-23.8 -6.6,-4.94 -15.8,-9.8 -27.4,-14.31 l -13.9,-5.59 102.9,-159.67"
             inkscape:connector-curvature="0" /><path
             id="path98"
             style="fill:#218e41;fill-opacity:1;fill-rule:nonzero;stroke:none"
             d="m 10678.5,1469.7 69.6,-0.25 c 5.8,0.53 11,1.74 15.4,3.67 5.1,2.33 11.2,6.96 17.8,13.53 6.3,6.37 10.8,13.01 13.3,19.77 2.9,6.85 4.1,14.79 4.1,24.28 0,8.51 -1.3,16.3 -4,23.15 -2.1,4.97 -6.8,11.54 -13.6,18.83 l -1.4,1.44 c -5.2,4.47 -12.1,8.13 -20.6,10.88 -9.8,3.3 -20.6,4.95 -32.1,4.95 h -48.5 z m 63,-42.65 -105.1,0.56 v 204.46 h 90.6 c 16,0 31.3,-2.36 45.4,-7.05 15.6,-5.14 28.7,-12.74 38.7,-22.57 l 6.4,-7.35 c 7.4,-8.7 12.7,-17.04 16.2,-25.35 4.9,-12.39 7.2,-25.31 7.2,-39.05 0,-15.03 -2.4,-28.36 -7,-39.65 -4.4,-11.77 -12.2,-23.52 -22.8,-34.19 -10.3,-10.22 -20.2,-17.48 -30.3,-22.18 -11.8,-5.13 -24.8,-7.63 -39.3,-7.63 z m 86.9,-162.64 h 20.5 l -93.9,145.95 43.6,17.45 c 11.8,4.58 18.1,8.45 21.3,10.9 3.7,2.68 9.2,7.65 16.7,18 7.4,10.77 13.1,21.49 16.6,31.48 3.6,10.01 5.3,21.23 5.3,33.39 v 11.98 c 0,16.37 -2.4,30.28 -7.3,41.34 -4.7,10.99 -13.4,22.88 -25.9,35.55 -11.5,10.88 -25.3,19.67 -40.5,25.68 -16.3,6.41 -33.8,9.64 -52.1,9.64 h -111.1 l 0.2,-381.36 h 14.9 v 148.38 h 95.1 z m 97.9,-42.14 h -120.8 l -96.5,148.37 h -30.2 v -148.37 h -99 l -0.4,465.64 h 153.3 c 23.6,0 46.3,-4.24 67.5,-12.57 20.2,-8 38.6,-19.68 54.6,-34.8 16.7,-16.92 28.3,-33.18 35.1,-48.85 7.1,-16.28 10.8,-35.89 10.8,-58.13 v -11.98 c 0,-16.95 -2.6,-32.91 -7.8,-47.45 -4.8,-13.5 -12.1,-27.49 -21.8,-41.65 -9.1,-12.59 -17.6,-21.53 -26.2,-27.71 -6.7,-5.06 -15.7,-9.94 -26.9,-14.59 l 108.3,-167.91"
             inkscape:connector-curvature="0" /><path
             id="path100"
             style="fill:#218e41;fill-opacity:1;fill-rule:nonzero;stroke:none"
             d="m 10683.8,1474.95 64.3,-0.23 c 4.8,0.46 9.5,1.53 13.4,3.23 4.3,2.04 10.1,6.46 16.1,12.41 5.8,5.84 9.9,11.87 12.1,17.89 2.6,6.23 3.8,13.51 3.8,22.45 0,7.87 -1.2,15.05 -3.7,21.25 -1.8,4.35 -6.3,10.49 -12.6,17.13 l -1.3,1.4 c -4.3,3.64 -10.6,6.98 -18.4,9.53 -9.3,3.09 -19.5,4.67 -30.5,4.67 h -43.2 z m 64.7,-10.74 -75.2,0.25 v 130.75 h 53.7 c 12.1,0 23.5,-1.73 33.8,-5.19 9,-2.98 16.6,-6.97 22.3,-11.89 l 1.8,-1.81 c 7.2,-7.65 12.2,-14.68 14.7,-20.38 3,-7.61 4.4,-16.04 4.4,-25.24 0,-10.33 -1.4,-18.95 -4.5,-26.27 -2.7,-7.29 -7.6,-14.57 -14.5,-21.51 -6.9,-6.9 -13.6,-11.96 -19.2,-14.57 -5,-2.2 -10.8,-3.57 -17.3,-4.14 z m -106.8,-31.36 99.8,-0.53 c 13.9,0 26.1,2.36 37.2,7.2 9.4,4.39 18.9,11.29 28.6,21.07 10,9.98 17.5,21.16 21.6,32.32 4.5,10.78 6.7,23.43 6.7,37.79 0,13.28 -2.2,25.42 -6.8,37.15 -3.2,7.67 -8.2,15.53 -15.3,23.86 l -6.3,7.31 c -9.2,8.93 -21.6,16.1 -36.5,21 -13.5,4.52 -28.2,6.8 -43.7,6.8 h -85.3 z m 99.8,-11.06 -110.3,0.59 v 214.96 h 95.8 c 16.6,0 32.4,-2.45 47,-7.33 16.4,-5.38 30.2,-13.38 40.8,-23.78 l 6.7,-7.67 c 7.8,-9.21 13.3,-17.93 17.1,-26.75 5.1,-13.1 7.5,-26.5 7.5,-41.11 0,-15.74 -2.4,-29.75 -7.3,-41.64 -4.6,-12.4 -13,-24.88 -24,-35.92 -10.7,-10.67 -21.1,-18.27 -31.8,-23.22 -12.4,-5.41 -26.3,-8.13 -41.5,-8.13 z m 89.7,-152.11 h 8.1 l -92.2,143.2 49.5,19.81 c 11.2,4.35 17.2,7.97 20.2,10.24 4.7,3.37 9.9,9.02 15.5,16.88 7.2,10.46 12.6,20.66 16,30.14 3.3,9.41 5,20.07 5,31.63 v 11.98 c 0,15.62 -2.4,28.83 -6.9,39.23 -4.4,10.34 -12.8,21.74 -24.8,33.97 -10.9,10.28 -24.4,18.81 -38.8,24.46 -15.6,6.16 -32.4,9.28 -50.1,9.28 h -105.8 l 0.2,-370.82 h 4.3 v 148.37 h 103.3 z m 27.4,-10.53 h -33.1 l -96.5,148.37 h -87 v -148.37 h -25.4 l -0.3,391.89 h 116.4 c 19,0 37.1,-3.37 54,-10.02 15.6,-6.16 30.2,-15.41 42.2,-26.72 13.2,-13.31 22.2,-25.82 27.2,-37.32 5.1,-11.7 7.7,-26.34 7.7,-43.42 v -11.98 c 0,-12.76 -1.9,-24.6 -5.6,-35.16 -3.7,-10.35 -9.5,-21.35 -17.3,-32.68 -6.4,-9 -12.3,-15.28 -17.9,-19.31 -5,-3.8 -12.6,-7.7 -22.5,-11.54 l -37.6,-15.05 z m -50.2,-31.61 h 108.2 l -106.5,165.11 5.9,2.41 c 10.7,4.4 19.3,9.09 25.7,13.9 8.3,5.96 16.5,14.61 25.1,26.59 9.4,13.7 16.5,27.31 21.2,40.34 4.9,13.99 7.4,29.38 7.4,45.69 v 11.98 c 0,21.51 -3.5,40.35 -10.3,56 -6.5,15.09 -18,30.99 -34,47.3 -15.4,14.5 -33.2,25.83 -52.9,33.57 -20.5,8.11 -42.6,12.21 -65.5,12.21 h -148 l 0.3,-455.1 h 88.6 v 148.37 h 38.3 z m 127.5,-10.51 h -133.2 l -96.6,148.37 h -22 v -148.37 h -109.6 l -0.3,476.15 h 158.5 c 24.3,0 47.6,-4.36 69.4,-12.95 20.9,-8.24 39.9,-20.31 56.3,-35.84 17.2,-17.38 29.3,-34.35 36.3,-50.64 7.5,-16.93 11.2,-37.22 11.2,-60.19 v -11.98 c 0,-17.5 -2.6,-34.06 -8,-49.2 -4.9,-13.92 -12.5,-28.35 -22.5,-42.87 -9.4,-13.04 -18.3,-22.47 -27.5,-29.02 -5.7,-4.35 -13.2,-8.64 -22.1,-12.67 l 110.1,-170.79"
             inkscape:connector-curvature="0" /><path
             id="path102"
             style="fill:#218e41;fill-opacity:1;fill-rule:nonzero;stroke:none"
             d="m 10985.6,1243.34 h 56.664 v 423.492 h -56.664 z"
             inkscape:connector-curvature="0" /><path
             id="path104"
             style="fill:#218e41;fill-opacity:1;fill-rule:nonzero;stroke:none"
             d="m 10990.9,1248.61 h 46.1 v 412.96 h -46.1 z m 56.6,-10.54 h -67.2 v 434.04 h 67.2 v -434.04"
             inkscape:connector-curvature="0" /><path
             id="path106"
             style="fill:#218e41;fill-opacity:1;fill-rule:nonzero;stroke:none"
             d="m 11006.7,1264.41 h 14.5 v 381.36 h -14.5 z m 56.6,-42.14 h -98.8 v 465.64 h 98.8 v -465.64"
             inkscape:connector-curvature="0" /><path
             id="path108"
             style="fill:#218e41;fill-opacity:1;fill-rule:nonzero;stroke:none"
             d="m 11011.9,1269.68 h 4 v 370.82 h -4 z m 14.6,-10.53 h -25.1 v 391.89 h 25.1 z m -56.7,-31.61 h 88.3 v 455.1 h -88.3 z m 98.8,-10.51 h -109.3 v 476.15 h 109.3 v -476.15"
             inkscape:connector-curvature="0" /><path
             id="path110"
             style="fill:#218e41;fill-opacity:1;fill-rule:nonzero;stroke:none"
             d="m 11328.1,1666.84 h 95.1 v -56.12 h -113.1 v -367.38 h -56.6 v 367.38 h -113.1 v 56.12 h 187.7"
             inkscape:connector-curvature="0" /><path
             id="path112"
             style="fill:#218e41;fill-opacity:1;fill-rule:nonzero;stroke:none"
             d="m 11258.7,1248.61 h 46.2 v 367.38 h 113 v 45.58 h -272.2 v -45.58 h 113 z m 56.7,-10.54 h -67.2 v 367.38 h -113.1 v 66.66 h 293.4 v -66.66 h -113.1 v -367.38"
             inkscape:connector-curvature="0" /><path
             id="path114"
             style="fill:#218e41;fill-opacity:1;fill-rule:nonzero;stroke:none"
             d="m 11274.5,1264.41 h 14.6 v 367.38 h 113 v 13.98 h -240.6 v -13.98 h 113 z m 56.7,-42.14 h -98.8 v 367.38 h -113.1 v 98.26 h 325 v -98.26 h -113.1 v -367.38"
             inkscape:connector-curvature="0" /><path
             id="path116"
             style="fill:#218e41;fill-opacity:1;fill-rule:nonzero;stroke:none"
             d="m 11279.8,1269.68 h 4 v 367.38 h 113.1 v 3.44 h -230.2 v -3.44 h 113.1 z m 14.5,-10.53 h -25 v 367.38 h -113.1 v 24.51 h 251.2 v -24.51 h -113.1 z m -56.6,-31.61 h 88.2 v 367.38 h 113.1 v 87.72 h -314.4 v -87.72 h 113.1 z m 98.8,-10.51 h -109.4 v 367.38 h -113 v 108.77 h 335.4 v -108.77 h -113 v -367.38"
             inkscape:connector-curvature="0" /><path
             id="path118"
             style="fill:#218e41;fill-opacity:1;fill-rule:nonzero;stroke:none"
             d="m 11567.9,1666.84 78.6,-149.82 15.7,-29.89 15.6,29.89 78.7,149.82 h 64 l -128.1,-236.1 -2,-8.54 v -178.86 h -56.1 v 178.86 l -2.3,8.54 -127.9,236.1 h 63.8"
             inkscape:connector-curvature="0" /><path
             id="path120"
             style="fill:#218e41;fill-opacity:1;fill-rule:nonzero;stroke:none"
             d="m 11639.6,1248.61 h 45.5 v 173.59 l 2.6,11.06 124,228.31 h -52 l -97.5,-185.8 -97.5,185.8 h -51.7 l 123.6,-228.31 3,-11.06 z m 56.1,-10.54 h -66.7 v 183.44 l -2.1,7.88 -131.6,242.72 h 75.8 l 91.1,-173.62 91.1,173.62 h 76.1 l -132,-243.25 -1.9,-7.85 0.2,-182.94"
             inkscape:connector-curvature="0" /><path
             id="path122"
             style="fill:#218e41;fill-opacity:1;fill-rule:nonzero;stroke:none"
             d="m 11655.4,1264.41 h 13.9 l 0.6,162.53 4,13.86 111.2,204.97 h -15.9 l -107,-204.06 -107,204.06 h -15.7 l 112.9,-209.64 3,-13.93 z m 56.1,-42.14 h -98.3 l -0.9,200.66 -143.5,264.98 h 111.9 l 81.5,-155.38 81.5,155.38 h 112.2 l -144.4,-268.12 v -197.52"
             inkscape:connector-curvature="0" /><path
             id="path124"
             style="fill:#218e41;fill-opacity:1;fill-rule:nonzero;stroke:none"
             d="m 11660.6,1269.68 h 3.5 l 0.7,158.73 4,13.86 107.5,198.23 h -3.9 l -110.2,-210.12 -110.2,210.12 h -3.7 l 109.2,-203.27 3,-13.93 z m 14,-10.53 h -24.5 v 163.05 l -2.7,12.09 -116.7,216.75 h 27.7 l 103.8,-197.97 103.8,197.97 h 28 l -115.5,-212.76 -3.4,-12.07 z m -56.1,-31.61 h 87.7 l 0.6,194.75 140.3,260.35 h -100.2 l -84.7,-161.45 -84.7,161.45 h -99.9 l 140,-259.68 z m 98.2,-10.51 H 11608 l -1,204.55 -147.1,271.6 h 124 l 78.3,-149.31 78.3,149.31 h 124.3 l -148.1,-274.72 v -201.43"
             inkscape:connector-curvature="0" /><path
             id="path126"
             style="fill:#062b4c;fill-opacity:1;fill-rule:nonzero;stroke:none"
             d="m 4132.47,2085.22 238.87,354.71 c 75.88,-74.5 141.29,-127.29 196.31,-158.39 55.04,-31.11 110.92,-46.64 167.64,-46.64 49.88,0 74.84,16.74 74.84,50.23 0,32.13 -22.56,57.06 -67.65,74.85 l -108.68,39.98 c -96.38,34.84 -168.83,86.44 -217.34,154.8 -49.24,69.04 -73.84,152.08 -73.84,249.13 0,94.32 23.25,178.04 69.74,251.19 46.47,73.12 111.75,130.01 195.78,170.69 84.08,40.66 179.43,61 286.07,61 64.23,0 124.53,-6 180.97,-17.93 56.37,-11.98 111.2,-30.94 164.52,-56.91 53.32,-25.98 106.64,-59.13 159.94,-99.45 l -191.73,-344.47 c -50.6,43.74 -98.08,77.22 -142.51,100.48 -49.86,26.64 -96.38,39.98 -139.44,39.98 -20.48,0 -36.9,-4.79 -49.17,-14.36 -14.37,-10.94 -21.56,-23.94 -21.56,-38.96 0,-32.81 30.44,-61.87 91.25,-87.14 l 115.85,-54.34 c 95.72,-45.11 164.72,-96.21 207.1,-153.27 42.39,-57.06 63.58,-128.66 63.58,-214.78 0,-99.8 -25.65,-188.64 -76.89,-266.56 -51.28,-77.92 -123.06,-138.06 -215.32,-180.43 -92.23,-42.38 -196.84,-63.56 -313.71,-63.56 -112.76,0 -217.18,19.97 -313.22,59.96 -96.03,39.99 -189.83,103.36 -281.4,190.19"
             inkscape:connector-curvature="0" /><path
             id="path128"
             style="fill:#062b4c;fill-opacity:1;fill-rule:nonzero;stroke:none"
             d="m 5919.44,2373.3 h 204.01 l -16.38,505.42 z m -727.91,-504.41 686.89,1384.05 h 560.81 l 185.56,-1384.05 h -484.92 l -3.07,178.41 h -346.53 l -67.66,-178.41 h -531.08"
             inkscape:connector-curvature="0" /><path
             id="path130"
             style="fill:#062b4c;fill-opacity:1;fill-rule:nonzero;stroke:none"
             d="m 6640.14,1868.89 244,1384.05 h 497.26 l 228.63,-688.95 126.09,688.95 h 502.35 L 7992.44,1868.89 h -489.05 l -241.96,707.4 -119.95,-707.4 h -501.34"
             inkscape:connector-curvature="0" /><path
             id="path132"
             style="fill:#062b4c;fill-opacity:1;fill-rule:nonzero;stroke:none"
             d="m 8993,2838.75 -175.31,-969.86 h -502.33 l 172.21,969.86 h -298.34 l 71.8,414.19 h 1078.51 l -73.83,-413.17 -272.71,-1.02"
             inkscape:connector-curvature="0" /><path
             id="path134"
             style="fill:#062b4c;fill-opacity:1;fill-rule:nonzero;stroke:none"
             d="m 9834.74,2791.58 c -43.06,-31.45 -77.05,-73.98 -102.01,-127.63 -24.94,-53.66 -37.43,-111.59 -37.43,-173.78 0,-60.83 17.8,-110.38 53.32,-148.66 36.21,-38.96 82.04,-58.42 137.4,-58.42 49.18,0 94.98,15.36 137.38,46.12 43,30.77 77.2,72.11 102.5,124.06 25.3,52.62 37.9,109 37.9,169.16 0,69.03 -16.4,122.34 -49.2,159.93 -32.8,37.58 -79.6,56.39 -140.42,56.39 -49.91,0 -96.38,-15.73 -139.44,-47.17 z m 467.56,445.98 c 90.8,-32.81 164.3,-77.59 220.4,-134.31 103.2,-103.21 154.8,-249.48 154.8,-438.79 0,-118.25 -20.4,-228.1 -61,-329.61 -40.7,-101.49 -98.8,-189.85 -174.3,-265.02 -75.5,-75.19 -164.2,-133.12 -266.1,-173.77 -101.8,-40.65 -211.84,-60.99 -330.07,-60.99 -97.07,0 -186.6,14.86 -268.59,44.59 -82.05,29.73 -152.77,72.1 -212.25,127.12 -59.44,55.01 -105.09,120.47 -136.88,196.33 -31.77,75.87 -47.66,159.25 -47.66,250.16 0,119.59 20.5,230.82 61.52,333.71 41.02,102.85 98.94,191.53 173.77,266.04 74.83,74.48 163.54,131.91 266.06,172.24 102.54,41 213.89,61.51 334.2,61.51 99.8,0 195.1,-16.4 286.1,-49.21"
             inkscape:connector-curvature="0" /><path
             id="path136"
             style="fill:#062b4c;fill-opacity:1;fill-rule:nonzero;stroke:none"
             d="m 10588.3,2085.22 238.8,354.71 c 75.9,-74.5 141.3,-127.29 196.4,-158.39 55,-31.11 110.9,-46.64 167.6,-46.64 49.9,0 74.8,16.74 74.8,50.23 0,32.13 -22.5,57.06 -67.6,74.85 l -108.7,39.98 c -96.4,34.84 -168.8,86.44 -217.4,154.8 -49.2,69.04 -73.8,152.08 -73.8,249.13 0,94.32 23.3,178.04 69.7,251.19 46.5,73.12 111.8,130.01 195.8,170.69 84.1,40.66 179.5,61 286.1,61 64.2,0 124.5,-6 181,-17.93 56.3,-11.98 111.2,-30.94 164.5,-56.91 53.3,-25.98 106.6,-59.13 159.9,-99.45 l -191.7,-344.47 c -50.6,43.74 -98.1,77.22 -142.5,100.48 -49.9,26.64 -96.4,39.98 -139.5,39.98 -20.4,0 -36.8,-4.79 -49.1,-14.36 -14.4,-10.94 -21.6,-23.94 -21.6,-38.96 0,-32.81 30.5,-61.87 91.3,-87.14 l 115.8,-54.34 c 95.7,-45.11 164.7,-96.21 207.1,-153.27 42.4,-57.06 63.6,-128.66 63.6,-214.78 0,-99.8 -25.7,-188.64 -76.9,-266.56 -51.3,-77.92 -123.1,-138.06 -215.3,-180.43 -92.2,-42.38 -196.9,-63.56 -313.7,-63.56 -112.8,0 -217.2,19.97 -313.2,59.96 -96.1,39.99 -189.9,103.36 -281.4,190.19"
             inkscape:connector-curvature="0" /><path
             id="path138"
             style="fill:#079ae1;fill-opacity:1;fill-rule:evenodd;stroke:none"
             d="m 3356.71,2600.38 -25.03,-169.72 c 239.32,-32.02 404.87,-254.62 371.48,-492.57 -33.39,-239.28 -255.97,-404.83 -493.9,-371.41 v -20.91 c 288.02,-41.73 560.71,161.4 601.04,453.57 41.74,288.02 -164.19,559.29 -453.59,601.04"
             inkscape:connector-curvature="0" /><path
             id="path146"
             style="fill:url(#linearGradient144);fill-opacity:1;fill-rule:evenodd;stroke:none"
             d="m 3573.84,2985.61 2.89,20.92 c -284.03,35.22 -550.5,-166.3 -590.32,-454.83 -41.76,-288.01 164.17,-559.28 453.56,-601.04 l 25.04,169.72 c -239.33,32.02 -404.85,254.62 -371.48,492.54 32.75,234.72 247.56,398.02 480.31,372.69"
             inkscape:connector-curvature="0" /><path
             id="path148"
             style="fill:#062b4c;fill-opacity:1;fill-rule:evenodd;stroke:none"
             d="m 3615.6,3280.43 c -389.55,54.08 -748.14,-222.41 -804.43,-625.42 -51.08,-397.51 218.85,-772.69 605.67,-826.88 l 4.03,20.86 c -338.41,49.93 -573.4,371.1 -525.23,719.87 47.11,350.18 357.37,593.45 695.77,543.41 l 24.19,168.16 v 0"
             inkscape:connector-curvature="0" /><path
             id="path156"
             style="fill:url(#linearGradient154);fill-opacity:1;fill-rule:evenodd;stroke:none"
             d="m 3226.23,1566.11 -2.88,-20.91 c 284.01,-35.23 550.49,166.28 590.3,454.82 41.76,288.01 -164.15,559.28 -453.54,601.03 l -25.04,-169.71 c 239.3,-32.03 404.85,-254.61 371.46,-492.54 -32.75,-234.72 -247.57,-398.03 -480.3,-372.69"
             inkscape:connector-curvature="0" /><path
             id="path158"
             style="fill:#062b4c;fill-opacity:1;fill-rule:evenodd;stroke:none"
             d="m 3184.46,1271.29 c 389.55,-54.08 748.13,222.42 804.43,625.41 51.07,397.52 -218.83,772.71 -605.68,826.88 l -4.03,-20.85 c 338.43,-49.94 573.41,-371.1 525.24,-719.89 -47.12,-350.15 -357.35,-593.44 -695.78,-543.39 l -24.18,-168.16 v 0"
             inkscape:connector-curvature="0" /></g></g></g></g></svg>